<svg xmlns="http://www.w3.org/2000/svg" width="48" height="48" viewBox="0 0 48 48"><path fill="#FFF" fill-rule="nonzero" d="M41.143 0H6.857A6.854 6.854 0 0 0 0 6.857v34.286A6.853 6.853 0 0 0 6.857 48h34.286A6.853 6.853 0 0 0 48 41.143V6.857A6.852 6.852 0 0 0 41.143 0Zm0 32.571A3.429 3.429 0 0 1 37.714 36H10.286a3.429 3.429 0 0 1-3.429-3.429V20.775l14.84 7.422a5.22 5.22 0 0 0 2.303.539c.793 0 1.58-.181 2.3-.541l14.843-7.42v11.796Zm0-15.632L24.77 25.127c-.483.24-1.05.24-1.533 0L6.858 16.94v-1.51A3.429 3.429 0 0 1 10.285 12h27.428a3.429 3.429 0 0 1 3.429 3.429v1.51h.001Z"/></svg>