<svg xmlns="http://www.w3.org/2000/svg" width="48" height="48" viewBox="0 0 48 48"><path fill="#FFF" fill-rule="nonzero" d="M41.143 0H6.857A6.857 6.857 0 0 0 0 6.857v34.286A6.857 6.857 0 0 0 6.857 48h34.286A6.857 6.857 0 0 0 48 41.143V6.857A6.86 6.86 0 0 0 41.143 0ZM37.67 31.018l-1.245 5.399a1.666 1.666 0 0 1-1.632 1.297c-13.511 0-24.504-10.993-24.504-24.514 0-.785.534-1.456 1.298-1.63l5.397-1.247c.79-.18 1.597.228 1.921.971L21.4 17.11c.29.685.094 1.48-.482 1.952l-2.886 2.367a18.731 18.731 0 0 0 8.547 8.544l2.36-2.883a1.667 1.667 0 0 1 1.953-.48l5.812 2.49a1.682 1.682 0 0 1 .967 1.918h-.001Z"/></svg>