<svg width="180" height="172" viewBox="0 0 180 172" xmlns="http://www.w3.org/2000/svg"><g fill-rule="nonzero" fill="none"><g fill="#654111"><path d="M11.355 0h157.157c3.277.065 6.494 1.558 8.626 4.05 1.761 2.011 2.76 4.64 2.862 7.306v148.899c-.068 2.778-1.13 5.525-3.001 7.585-2.129 2.403-5.279 3.824-8.482 3.898H11.613c-2.617-.042-5.22-.948-7.252-2.606-2.667-2.126-4.29-5.459-4.361-8.864V11.398c.093-3.068 1.416-6.08 3.659-8.18C5.716 1.244 8.512.103 11.355 0m10.334 20.827c-2.31.52-4.118 2.394-5.004 4.532-1.041 2.569-1.214 5.464-.616 8.16.463 2.122 1.581 4.188 3.421 5.416 1.391.997 3.183 1.28 4.857 1.08 1.694-.214 3.243-1.21 4.223-2.596-.06 1.374.16 2.781-.2 4.126a4.886 4.886 0 0 1-2.277 2.818c-1.455.836-3.322.847-4.823.132-1.06-.509-1.615-1.624-1.969-2.686a190.48 190.48 0 0 0-2.903-.003c.464 2.07 1.863 3.938 3.821 4.805 2.16.933 4.729.946 6.871-.051a7.113 7.113 0 0 0 3.371-3.26c.573-1.11.796-2.37.787-3.61V21.017c-.893.002-1.786-.001-2.678 0 .001.769-.002 1.538 0 2.306-.581-.819-1.31-1.549-2.216-2-1.424-.743-3.116-.822-4.665-.496m19.212.137c-1.18.412-2.012 1.42-2.636 2.458-.014-.801-.008-1.602-.008-2.403-.89-.003-1.783 0-2.675-.003 0 6.24-.001 12.482.002 18.724.891-.001 1.78 0 2.672-.003.003-4.003-.002-8.004.001-12.007-.022-1.612.996-3.175 2.466-3.83 1.044-.496 2.266-.538 3.368-.214-.003-.9.006-1.8-.006-2.7-1.006-.438-2.161-.363-3.184-.022m8.83.73c-1.968 1.191-3.232 3.285-3.793 5.474-.739 2.826-.526 5.936.782 8.565.964 1.931 2.696 3.53 4.807 4.091 2.054.518 4.342.26 6.138-.904 1.785-1.127 2.946-3.025 3.532-5.02-.901-.004-1.803 0-2.704-.004-.574 1.471-1.582 2.865-3.065 3.513-1.527.661-3.412.434-4.684-.658-1.724-1.406-2.41-3.683-2.56-5.826 4.484-.003 8.969-.002 13.454-.002.065-2.483-.497-5.052-1.947-7.103-1.119-1.558-2.815-2.754-4.729-3.064-1.778-.279-3.697-.053-5.232.938m16.442 1.845c-1.48 1.899-2.11 4.336-2.167 6.713-.014 2.197.48 4.447 1.685 6.309.984 1.539 2.508 2.76 4.281 3.25 2.122.553 4.499.261 6.33-.984 1.707-1.136 2.818-2.985 3.383-4.927-.903-.005-1.806-.001-2.709-.002-.596 1.592-1.751 3.092-3.413 3.645-1.401.452-3.033.242-4.199-.689-1.804-1.387-2.562-3.731-2.669-5.93 4.484-.005 8.97.005 13.453-.005.044-2.994-.774-6.196-3.023-8.301-1.468-1.42-3.544-2.126-5.574-1.955-2.116.068-4.102 1.217-5.378 2.876m19.824-.095c-.006-.808-.002-1.618-.003-2.427-.89 0-1.778-.001-2.666.002.001 6.24-.002 12.479.001 18.72h2.663c.005-4.15.002-8.298 0-12.448.015-.995.661-1.843 1.35-2.504 1.015-.943 2.321-1.595 3.698-1.777 1.5-.218 2.989.85 3.473 2.248.202.557.149 1.158.155 1.739-.003 4.248-.002 8.495-.002 12.742l2.674.001c.003-4.792.003-9.584 0-14.375.006-1.294-.555-2.583-1.55-3.42-1.13-.994-2.697-1.304-4.163-1.255-2.148.054-4.354.973-5.63 2.754m16.858.325c-1.297 1.888-1.775 4.22-1.827 6.478-.01 2.252.424 4.579 1.651 6.5 1.006 1.593 2.634 2.849 4.51 3.192 1.908.346 3.994.071 5.598-1.075 1.865-1.278 2.888-3.447 3.345-5.602-.913-.01-1.825-.002-2.738-.005-.385 1.439-1.079 2.871-2.296 3.785-1.452 1.053-3.618.978-4.986-.188-1.137-.944-1.766-2.357-2.11-3.766-.469-2.063-.398-4.26.272-6.271.45-1.313 1.22-2.59 2.429-3.327 1.338-.814 3.173-.717 4.42.23 1.112.87 1.793 2.178 2.187 3.512.907.01 1.814.008 2.723.003-.488-2.084-1.531-4.142-3.337-5.375-1.439-1.032-3.276-1.38-5.014-1.153-1.975.2-3.73 1.445-4.827 3.062m18.3-1.175c-1.12 1-1.821 2.438-1.85 3.946.9.013 1.8.014 2.7-.002.015-.957.47-1.866 1.178-2.5 1.437-1.324 3.69-1.488 5.425-.694 1.247.556 2.024 1.91 1.987 3.258-.062.599-.693.852-1.175 1.049-1.706.636-3.497 1-5.234 1.533-1.674.541-3.35 1.327-4.519 2.685-1.027 1.143-1.256 2.83-.893 4.284.657 2.278 2.944 3.949 5.309 3.92 2.524-.008 5.146-.992 6.744-3.01.072.976.214 2.15 1.145 2.7 1.062.569 2.337.277 3.432-.05.007-.854.003-1.708.006-2.56-.368.153-.734.418-1.151.353-.598-.138-.993-.76-.987-1.356-.009-3.197 0-6.394-.003-9.59-.006-.945-.211-1.906-.714-2.716-.84-1.441-2.321-2.43-3.917-2.844-2.548-.722-5.5-.222-7.482 1.594m22.273-1.608c-1.156.42-1.964 1.415-2.581 2.433-.013-.8-.007-1.6-.006-2.4-.894-.003-1.787-.002-2.68 0 0 6.24-.002 12.48 0 18.721h2.679c-.002-3.706.001-7.412-.002-11.117.005-.65-.043-1.31.133-1.942.336-1.264 1.276-2.365 2.496-2.85 1.01-.431 2.162-.452 3.208-.146 0-.893-.003-1.787.003-2.681-1.017-.478-2.215-.378-3.25-.018m8.175 1.209c-1.799 1.401-2.837 3.573-3.265 5.774-.52 2.697-.205 5.604 1.114 8.034.987 1.837 2.701 3.323 4.74 3.842 2.123.516 4.484.19 6.288-1.077 1.663-1.14 2.739-2.961 3.298-4.869l-2.71-.001c-.583 1.559-1.702 3.026-3.31 3.61-1.459.537-3.185.276-4.388-.725-1.748-1.394-2.465-3.697-2.59-5.857 4.482-.006 8.964-.001 13.448-.001.074-3.093-.832-6.435-3.245-8.52-2.54-2.28-6.74-2.369-9.38-.21M18.366 54.69c-2.256.434-4.198 2.158-4.903 4.343-.398 1.13-.336 2.343-.336 3.521v57.692c.006 1.214-.077 2.47.343 3.634.659 2.01 2.357 3.638 4.399 4.199 1.093.332 2.247.233 3.372.245 46.234.003 92.469-.003 138.702.003 1.12.03 2.253-.188 3.254-.704 2.133-1.06 3.573-3.364 3.569-5.751.007-19.87 0-39.739.003-59.608.007-1.02.036-2.063-.273-3.047-.607-2.083-2.327-3.793-4.412-4.39-1.174-.362-2.417-.247-3.626-.262-46.23-.003-92.46.002-138.69-.003-.47.006-.94.038-1.402.128m-1.113 85.056c.002.672.003 1.343 0 2.016.614.003 1.227.001 1.839.001-.002-.674-.002-1.347 0-2.02-.612-.003-1.226-.003-1.839.003m47.9-.003v2.022c.603-.002 1.207-.002 1.81-.002v-2.02c-.603-.003-1.207-.001-1.81 0m49.43 0c.002 5.455-.004 10.91.003 16.366a33.38 33.38 0 0 0 1.843-.034c0-5.442-.001-10.881.001-16.323-.616-.014-1.231-.012-1.847-.009m-77.656.682a646.452 646.452 0 0 0-.002 3.383c-.618.006-1.238.005-1.857.003-.002.51-.002 1.018 0 1.529.62 0 1.237-.002 1.856.004.003 2.9-.003 5.8.001 8.7-.02.747.304 1.551.989 1.917.962.542 2.115.362 3.148.17 0-.465 0-.93.006-1.393-.882.273-2.313 0-2.312-1.148-.026-2.75-.001-5.5-.012-8.25.676.003 1.355.007 2.03-.024.002-.503.002-1.003 0-1.503-.677 0-1.354 0-2.03-.002.002-1.129.005-2.259-.003-3.387-.605.003-1.21.003-1.814.001m110.652 0c-.01 1.127-.007 2.257-.003 3.386-.618.002-1.236 0-1.853 0-.003.5-.001 1-.001 1.502.617.03 1.235.033 1.854.03-.006 2.899-.004 5.8-.001 8.7-.02.754.313 1.555 1.002 1.924.959.533 2.105.356 3.133.164 0-.465 0-.928.005-1.391-.676.157-1.475.134-2.008-.365-.39-.404-.294-1.012-.308-1.521.005-2.505.002-5.01.001-7.514.676.006 1.351-.005 2.029.003v-1.532c-.676 0-1.352 0-2.028.002-.001-1.13.003-2.26-.002-3.388-.607.002-1.215.002-1.82 0m-122.968 4.98c.006-.532.006-1.063 0-1.594l-1.822.002c-.006 4.09 0 8.182-.003 12.274.608.022 1.216.022 1.825.023.01-2.659.005-5.317 0-7.976-.063-1.106.872-1.927 1.743-2.437.687-.375 1.474-.654 2.267-.571 1.004.166 1.919 1.06 1.895 2.115.006 2.948.003 5.896.001 8.846.613.028 1.225.023 1.837-.005-.004-3.094-.001-6.186 0-9.28.01-.751-.227-1.524-.75-2.076-.637-.711-1.59-1.058-2.527-1.111-1.65-.133-3.44.437-4.466 1.79m21.54-1.283c-1.17.602-2.058 1.67-2.545 2.883-.78 1.946-.776 4.213.082 6.132.613 1.37 1.786 2.519 3.236 2.958 1.64.478 3.528.21 4.876-.869.953-.736 1.558-1.819 1.937-2.943-.618-.013-1.237-.01-1.856-.009-.377.899-.987 1.743-1.872 2.194-1.068.533-2.445.444-3.386-.311-1.173-.9-1.68-2.413-1.763-3.844 3.063-.001 6.124.008 9.187-.004.018-1.508-.298-3.057-1.126-4.335-.777-1.211-2.056-2.13-3.493-2.338-1.107-.155-2.281-.05-3.277.486m14.232-.234c-.678.302-1.147.901-1.548 1.503 0-.526 0-1.055-.003-1.58-.608.002-1.216.002-1.822 0-.006 4.093-.003 8.186-.003 12.28.61.022 1.219.02 1.828-.006-.002-2.55.003-5.1-.003-7.65-.024-.695.178-1.403.637-1.934.785-.975 2.175-1.272 3.352-.946-.005-.592-.001-1.182-.004-1.772a3.285 3.285 0 0 0-2.434.105m14.063-.204c-1.45.303-2.697 1.313-3.41 2.597-.861 1.552-1.099 3.411-.796 5.15.27 1.494 1 2.963 2.241 3.88 1.953 1.493 4.984 1.329 6.743-.402 1.65-1.623 2.157-4.131 1.763-6.354-.282-1.615-1.097-3.204-2.488-4.127-1.162-.83-2.678-1.01-4.053-.744m13.353.148c-.737.282-1.25.918-1.673 1.556l-.003-1.575c-.61-.002-1.218 0-1.825 0-.006 4.092-.005 8.185-.002 12.278.608.02 1.217.018 1.827.016.006-2.608 0-5.218.001-7.825-.026-1 .558-1.963 1.424-2.445.77-.446 1.708-.506 2.56-.279-.005-.593 0-1.186-.005-1.778a3.296 3.296 0 0 0-2.304.052m17.255-.1c-.942.225-1.743.832-2.337 1.58.005-.5.004-1 .004-1.5-.592 0-1.182 0-1.77-.002-.006 5.608-.002 11.217-.003 16.827l1.774.003c-.002-2.054.005-4.106-.004-6.16.344.472.729.93 1.238 1.233 1.11.72 2.544.778 3.789.409 1.407-.45 2.512-1.61 3.069-2.957.63-1.547.765-3.281.458-4.919-.256-1.41-.936-2.788-2.09-3.675-1.142-.918-2.722-1.167-4.128-.84m16.262.898c-.892.653-1.536 1.692-1.517 2.822.596.003 1.193.001 1.792.003.079-.571.28-1.14.71-1.54.934-.931 2.43-1.08 3.633-.654.938.32 1.636 1.287 1.518 2.293-.03.311-.373.43-.614.552-1.03.404-2.122.616-3.184.914-1.307.349-2.65.859-3.587 1.877-.82.847-.966 2.207-.495 3.265.615 1.307 2.031 2.165 3.47 2.16 1.708-.012 3.473-.642 4.602-1.967.047.629.144 1.384.745 1.74.736.413 1.612.18 2.382 0 .003-.56 0-1.121.008-1.68-.301.086-.615.314-.936.17-.376-.162-.566-.59-.535-.982-.003-2.07.006-4.14-.002-6.209.02-1.124-.607-2.188-1.51-2.828-1.887-1.309-4.624-1.307-6.48.064m13.942.767c.003-.53.003-1.058-.001-1.585-.605.002-1.209 0-1.814 0-.004 4.096-.003 8.19 0 12.284.605.018 1.21.017 1.815-.004.003-2.653.005-5.306-.001-7.96-.053-1.099.875-1.92 1.745-2.428.732-.397 1.588-.71 2.43-.548.933.229 1.765 1.083 1.734 2.084.004 2.947 0 5.895.001 8.845.613.028 1.228.03 1.842.004-.008-3.094 0-6.188-.003-9.28.007-.757-.223-1.533-.754-2.085-.707-.792-1.796-1.117-2.83-1.123-1.558-.051-3.184.546-4.164 1.796m21.107-1.597c-.945.253-1.851.896-2.154 1.862-.24.799-.208 1.738.301 2.43.593.832 1.53 1.325 2.448 1.722 1.214.533 2.533.878 3.62 1.669.48.351.914.9.828 1.533-.05.678-.644 1.155-1.224 1.415-1.23.528-2.798.566-3.875-.319-.544-.425-.767-1.112-.83-1.775-.607.004-1.213-.001-1.818.007.044.825.239 1.67.77 2.326.916 1.238 2.547 1.674 4.022 1.65 1.384-.029 2.908-.287 3.911-1.327 1.07-1.095 1.27-3.128.083-4.21-.987-.922-2.322-1.289-3.526-1.829-.884-.407-1.878-.657-2.597-1.347-.417-.382-.583-1.06-.248-1.545.43-.627 1.194-.953 1.937-.99.878-.05 1.854.078 2.53.694.331.287.412.736.505 1.145.6 0 1.203.011 1.806.008-.047-.547-.12-1.112-.411-1.589-.468-.823-1.346-1.316-2.236-1.556a7.634 7.634 0 0 0-3.842.026m-139.092.01c-.042 4.092-.005 8.185-.02 12.276.613.027 1.227.03 1.839.006-.002-4.093 0-8.186-.002-12.278-.606 0-1.211 0-1.817-.003m47.881.003c-.003 4.097-.004 8.196.002 12.294.599 0 1.2-.001 1.8.002.016-4.099.008-8.2.004-12.298-.602.002-1.204.002-1.806.002Z"/><path d="M22.199 23.124c1.148-.354 2.465-.195 3.454.503 1.315.903 2.1 2.393 2.49 3.907.462 1.849.473 3.813.028 5.667-.365 1.464-1.093 2.917-2.345 3.816-1.061.79-2.51.935-3.754.55-1.607-.553-2.625-2.094-3.132-3.644a11.66 11.66 0 0 1 .03-7.099c.533-1.575 1.582-3.153 3.229-3.7ZM50.903 23.896c.94-.759 2.201-1.113 3.395-.89 1.27.207 2.36 1.055 3.08 2.097.737 1.038 1.123 2.272 1.411 3.5-3.482.055-6.965.038-10.447.01.311-1.787 1.106-3.575 2.561-4.717ZM69.36 23.92c.893-.727 2.076-1.1 3.224-.946 1.123.124 2.134.764 2.873 1.597.985 1.142 1.52 2.602 1.813 4.064-3.476-.002-6.952-.005-10.428.001.273-1.786 1.086-3.566 2.518-4.715ZM153.066 24.26c.843-.816 1.986-1.359 3.175-1.316 1.284.003 2.49.679 3.314 1.635.987 1.139 1.514 2.597 1.808 4.056-3.478-.005-6.954-.002-10.43-.002.255-1.62.94-3.222 2.133-4.373ZM122.515 32.654c2.349-1.803 5.415-2.019 8.082-3.112a815.85 815.85 0 0 0 .002 4.25c.013.339-.067.677-.233.972-.76 1.457-2.228 2.452-3.796 2.86-1.203.324-2.562.353-3.671-.278-.737-.387-1.322-1.095-1.446-1.93-.226-1.029.197-2.156 1.062-2.762ZM41.736 60.235c2.61 1.223 5.256 2.713 6.936 5.133.531.754.891 1.61 1.167 2.486a40.3 40.3 0 0 1 4.92-4.9c1.42 1.577 2.37 3.555 2.757 5.636.361 1.84.323 3.735.096 5.588 2.54-1.929 5.257-3.653 8.194-4.91-.498 3.43-1.958 6.612-2.865 9.936-.3 1.148-.671 2.28-1.158 3.364-1.684 3.836-4.583 7.05-7.993 9.444a32.324 32.324 0 0 1-9.43 4.545c-.022.21-.046.42-.07.633 5.39-.006 10.78-.028 16.17-.024-.583 1.201-1.154 2.408-1.748 3.603-.34.679-.47 1.433-.656 2.161-1.484 5.892-2.958 11.788-4.446 17.68-5.739 0-11.48 0-17.219-.003-1.843-6.283-3.689-12.566-5.527-18.85a4.92 4.92 0 0 0-.348-.805c-.69-1.248-1.406-2.483-2.067-3.746 3.995-.01 7.99-.009 11.988-.013.64.006 1.282.013 1.92-.053-.542-.2-1.107-.32-1.67-.436-2.316-.574-4.572-1.533-6.45-3.026-1.772-1.4-3.175-3.314-3.813-5.493-.352-1.217-.492-2.535-.137-3.766.617-2.234 1.67-4.32 2.88-6.287.235.063.47.128.707.193-.182-3.379.233-6.77 1.058-10.045 1.437-.389 2.948-.326 4.386.018 1.273-2.511 2.241-5.233 2.418-8.063m8.342 8.467c.273 1.572.22 3.184-.001 4.76-.744 5.027-2.93 9.671-4.978 14.272 3.03-4.853 6.964-9.117 11.44-12.668.258-1.55.314-3.134.192-4.7-.198-2.237-1.01-4.415-2.364-6.208-1.578 1.362-3.068 2.846-4.289 4.544m-7.403-3.449c-.39 1.307-.86 2.588-1.337 3.864 2.05 1.183 3.681 3.057 4.53 5.273a20.019 20.019 0 0 1 1.808-3.741c-.86-2.39-2.952-4.042-5.001-5.396m-7.023 3.65c-.537 3.212-1.086 6.473-.818 9.74 1.046.377 2.042.877 3 1.442-.425-3.697.454-7.356 1.242-10.941-1.114-.306-2.278-.362-3.424-.24m5.298 1.128a32.178 32.178 0 0 0-1.166 3.74c-.58 2.5-.866 5.254.214 7.662.86 1.941 2.724 3.256 4.716 3.855 1.137-2.396 2.18-4.851 2.89-7.411.56-2.027.931-4.178.481-6.266-.94 1.496-1.685 3.182-1.754 4.972-.285.127-.57.252-.854.38-.417-2.823-2.063-5.46-4.527-6.932m16.209 7.063c-.384.215-.425.681-.542 1.06-.557 2.12-1.631 4.058-2.815 5.887 2.25-1.446 4.607-2.716 7.022-3.86.581-2.08 1.003-4.198 1.424-6.314a90.737 90.737 0 0 0-5.09 3.227m-5.213 4.213c-1.982 1.862-3.869 3.856-5.365 6.135-1.198 1.827-2.135 3.903-2.225 6.117 2.362-.785 4.663-1.764 6.836-2.979 3.87-2.148 7.312-5.308 9.144-9.395-2.92 1.406-5.7 3.097-8.325 4.993-.124-.148-.248-.295-.37-.443 1.77-2.262 3.117-4.842 4.038-7.56-1.315.958-2.537 2.033-3.733 3.132m-19.421.399c-.304.737-.64 1.475-.788 2.264-.115.301.29.296.466.4 1.243.409 2.435.977 3.515 1.72a20.912 20.912 0 0 1-1.278-3.663 29.952 29.952 0 0 0-1.915-.721m3.035 1.364c.801 2.336 2.04 4.499 3.523 6.467l-.773.586c-1.098-1.138-2.129-2.346-3.342-3.367-1-.835-2.2-1.403-3.45-1.748-.08 1.022-.085 2.07.212 3.061.488 1.816 1.822 3.296 3.395 4.273 2.089 1.325 4.598 1.784 7.039 1.84.252-2.135-.077-4.373-1.169-6.246-1.233-2.158-3.284-3.701-5.435-4.866M32.27 99.633c2.12 6.344 4.238 12.69 6.365 19.033 2.693-.003 5.387.004 8.08-.003 1.459-6.343 2.913-12.687 4.37-19.03-6.272-.004-12.544-.004-18.815 0ZM85.422 60.24c2.34 1.081 4.674 2.376 6.363 4.368.813.939 1.393 2.06 1.752 3.246 1.485-1.775 3.144-3.4 4.91-4.894 1.47 1.61 2.42 3.66 2.794 5.803.328 1.784.285 3.618.067 5.413 2.536-1.925 5.249-3.644 8.178-4.907-.359 2.688-1.37 5.226-2.197 7.792-.579 1.621-.891 3.327-1.563 4.916-1.626 4.062-4.616 7.47-8.163 9.982a32.605 32.605 0 0 1-7.888 4.077c-.51.19-1.052.295-1.547.522-.108.19-.129.416-.186.626 5.404.009 10.807-.027 16.21-.018-.547 1.138-1.093 2.278-1.657 3.408a5.784 5.784 0 0 0-.425 1.067c-1.589 6.322-3.173 12.646-4.767 18.966-5.74.003-11.48.002-17.22.002-1.733-5.896-3.456-11.793-5.188-17.689-.2-.674-.348-1.373-.698-1.99-.69-1.24-1.394-2.471-2.06-3.724 3.987-.01 7.973-.007 11.96-.013.65.006 1.301.014 1.95-.055-.546-.205-1.12-.314-1.686-.44-2.747-.684-5.431-1.915-7.454-3.933-1.76-1.741-3.029-4.096-3.119-6.603-.075-1.26.378-2.463.82-3.62.604-1.539 1.382-3.003 2.25-4.407l.716.189c-.204-3.38.236-6.767 1.048-10.044 1.437-.388 2.948-.327 4.388.018 1.271-2.51 2.247-5.23 2.412-8.058m8.348 8.458c.57 3.547-.315 7.132-1.434 10.484-.983 2.919-2.293 5.709-3.52 8.527 3.018-4.853 6.959-9.1 11.423-12.652.211-1.503.357-3.027.195-4.543-.177-2.287-.984-4.528-2.381-6.353-1.572 1.365-3.059 2.846-4.283 4.537m-7.413-3.44c-.367 1.314-.858 2.586-1.326 3.865a10.398 10.398 0 0 1 4.526 5.266c.378-1.017.807-2.019 1.36-2.954.209-.38.553-.801.28-1.24-.98-2.146-2.9-3.686-4.84-4.936m-7.002 3.626c-.552 3.215-1.096 6.485-.826 9.756 1.043.379 2.04.876 2.995 1.443-.428-3.695.46-7.352 1.244-10.934-1.108-.325-2.271-.347-3.413-.265m5.286 1.147c-.675 1.812-1.243 3.675-1.524 5.593-.277 1.934-.25 3.993.571 5.801.846 1.88 2.63 3.229 4.58 3.803.19.09.232-.222.327-.325 1.085-2.349 2.094-4.745 2.762-7.25.515-1.955.858-4.03.413-6.033-.94 1.494-1.673 3.178-1.757 4.965-.279.128-.557.256-.835.386-.153-.739-.317-1.48-.59-2.186a9.514 9.514 0 0 0-3.947-4.754m16.737 6.703c-.278.194-.593.361-.811.628-.165.367-.238.767-.354 1.152-.596 1.979-1.594 3.81-2.727 5.53a64.135 64.135 0 0 1 7.03-3.865c.579-2.076 1.008-4.19 1.417-6.306a98.197 98.197 0 0 0-4.555 2.86m-10.202 9.427c-1.622 2.153-2.997 4.646-3.138 7.393a37.92 37.92 0 0 0 7.027-3.076c3.79-2.14 7.157-5.264 8.957-9.285-2.942 1.387-5.698 3.13-8.362 4.986-.11-.15-.217-.3-.325-.449 1.776-2.262 3.12-4.847 4.037-7.569-3.028 2.334-5.863 4.962-8.196 8m-15.797-1.974c1.413.454 2.791 1.049 4.019 1.893-.524-1.18-.958-2.4-1.263-3.656-.632-.248-1.265-.49-1.898-.726-.382.794-.687 1.623-.858 2.489m3.873-1.118c.798 2.338 2.042 4.504 3.527 6.47l-.785.586c-1.134-1.198-2.21-2.466-3.502-3.504-.964-.765-2.101-1.282-3.282-1.617-.082.978-.078 1.977.176 2.933.438 1.762 1.661 3.242 3.159 4.229 2.13 1.458 4.752 1.943 7.29 2.027.304-2.238-.099-4.602-1.31-6.527-1.25-2.021-3.215-3.476-5.273-4.597m-3.29 16.567c2.112 6.346 4.247 12.684 6.361 19.028 2.695.002 5.389.002 8.083 0 1.462-6.343 2.914-12.688 4.374-19.033-6.273 0-12.545-.008-18.819.005ZM129.109 60.238c2.064.944 4.092 2.064 5.726 3.665 1.108 1.093 1.958 2.45 2.391 3.95 1.505-1.765 3.14-3.432 4.946-4.891a11.9 11.9 0 0 1 2.731 5.634c.367 1.83.285 3.71.128 5.558 2.53-1.925 5.247-3.625 8.167-4.898-.487 3.28-1.827 6.338-2.748 9.503-.367 1.413-.8 2.816-1.43 4.14-1.85 4.03-5.048 7.32-8.735 9.724-2.632 1.703-5.503 3.051-8.518 3.919-.037.212-.072.428-.107.643 5.395.005 10.79-.026 16.186-.019-.66 1.455-1.46 2.85-2.04 4.338-1.62 6.365-3.196 12.743-4.816 19.108-5.74-.01-11.479.006-17.218-.008-1.576-5.379-3.15-10.76-4.73-16.138-.333-1.049-.567-2.129-.959-3.156-.722-1.385-1.527-2.723-2.253-4.106 3.095-.005 6.192-.008 9.288-.008 1.54-.023 3.082.042 4.62-.046-.659-.286-1.379-.351-2.06-.549-2.55-.685-5.027-1.85-6.94-3.702-1.419-1.351-2.506-3.073-3.003-4.976-.304-1.151-.394-2.39-.055-3.544.621-2.216 1.673-4.283 2.864-6.244l.71.187c-.179-3.377.245-6.76 1.053-10.037 1.437-.395 2.952-.334 4.392.012 1.272-2.51 2.255-5.23 2.41-8.059m8.35 8.464c.484 2.922-.064 5.898-.873 8.71-1.073 3.644-2.64 7.116-4.233 10.556 3.028-4.967 7.04-9.295 11.578-12.917.243-1.642.354-3.315.153-4.968a12.013 12.013 0 0 0-2.333-5.928c-1.574 1.37-3.067 2.852-4.291 4.547m-8.742.418a10.428 10.428 0 0 1 4.534 5.254 20.503 20.503 0 0 1 1.811-3.731c-.866-2.39-2.96-4.025-4.997-5.399a64.004 64.004 0 0 1-1.348 3.876m-5.687-.21c-.526 3.21-1.09 6.467-.81 9.73 1.044.38 2.038.879 2.994 1.44-.434-3.697.475-7.35 1.238-10.94-1.114-.303-2.278-.36-3.422-.23m5.299 1.13c-.464 1.265-.889 2.546-1.191 3.859-.55 2.41-.813 5.047.179 7.383.838 2.01 2.736 3.411 4.792 4.001 1.186-2.54 2.3-5.131 3-7.853.471-1.879.797-3.868.346-5.784-.946 1.483-1.667 3.163-1.751 4.94-.28.128-.561.258-.838.388-.424-2.82-2.051-5.486-4.537-6.935m16.198 7.072c-.327.175-.388.555-.478.88-.56 2.18-1.639 4.186-2.875 6.053a62.29 62.29 0 0 1 7.034-3.854c.583-2.082.992-4.206 1.43-6.32a87.744 87.744 0 0 0-5.11 3.24m-10.165 9.744c-1.376 1.977-2.54 4.24-2.61 6.697 2.789-.923 5.502-2.11 7.997-3.668 3.38-2.092 6.334-5.034 7.964-8.699-2.917 1.412-5.696 3.1-8.326 4.993-.122-.146-.248-.293-.367-.437 1.778-2.266 3.126-4.857 4.043-7.585-3.242 2.522-6.305 5.346-8.7 8.7m-14.463-5.14c-.354.796-.655 1.616-.84 2.467 1.414.46 2.794 1.054 4.028 1.893a22.426 22.426 0 0 1-1.268-3.651 23.566 23.566 0 0 0-1.92-.708m3.04 1.351c.802 2.339 2.041 4.507 3.53 6.474-.267.193-.531.388-.795.584-1.031-1.112-2.035-2.257-3.186-3.253-1.03-.892-2.28-1.514-3.595-1.86-.07 1.02-.08 2.064.215 3.054.452 1.671 1.614 3.074 3.032 4.035 2.153 1.505 4.826 2.024 7.41 2.082.22-2.064-.052-4.224-1.071-6.058-1.218-2.252-3.327-3.86-5.54-5.058m-3.29 16.569c2.12 6.343 4.244 12.684 6.36 19.028 2.698 0 5.395.005 8.094-.001a6963.017 6963.017 0 0 1 4.367-19.029c-6.275-.004-12.548-.008-18.822.002ZM75.023 145.135c.754-.138 1.564-.01 2.206.422.885.562 1.443 1.513 1.761 2.492.542 1.727.358 3.716-.652 5.24-.636.965-1.773 1.62-2.946 1.511-1.177-.056-2.198-.868-2.732-1.884-1.024-1.895-.957-4.342.178-6.173.488-.782 1.266-1.424 2.185-1.608ZM46.883 145.583c.967-.67 2.34-.667 3.305.005 1.091.714 1.618 1.99 1.895 3.216-2.378.009-4.758.003-7.136.003.25-1.25.84-2.508 1.936-3.224ZM105.242 145.251c.93-.302 2.03-.147 2.776.51.909.766 1.344 1.947 1.51 3.096.147 1.23.065 2.514-.404 3.674-.295.714-.74 1.393-1.39 1.832-.969.68-2.393.621-3.294-.15-.897-.736-1.365-1.87-1.56-2.988-.231-1.39-.116-2.87.486-4.156.379-.803 1.018-1.529 1.876-1.818ZM122.763 150.962c1.493-.752 3.174-.967 4.732-1.537-.005.845-.002 1.692.003 2.54.067.94-.684 1.675-1.4 2.16-1.206.738-2.88 1.08-4.121.243-.834-.524-1.013-1.791-.399-2.547.317-.379.756-.628 1.185-.859Z"/></g><g fill="#FFFDE6"><path d="M21.689 20.827c1.549-.326 3.241-.247 4.665.496.906.451 1.635 1.181 2.216 2-.002-.768.001-1.537 0-2.306.892-.001 1.785.002 2.678 0V39.69c.009 1.24-.214 2.5-.787 3.61a7.113 7.113 0 0 1-3.371 3.26c-2.142.997-4.711.984-6.871.051-1.958-.867-3.357-2.735-3.821-4.805.968-.006 1.935-.006 2.903.003.354 1.062.91 2.177 1.969 2.686 1.501.715 3.368.704 4.823-.132a4.886 4.886 0 0 0 2.276-2.818c.36-1.345.14-2.752.2-4.126-.979 1.386-2.528 2.382-4.222 2.596-1.674.2-3.466-.083-4.857-1.08-1.84-1.228-2.958-3.294-3.421-5.415-.598-2.697-.425-5.592.616-8.16.886-2.139 2.695-4.014 5.004-4.533m.51 2.297c-1.647.547-2.696 2.125-3.228 3.7a11.66 11.66 0 0 0-.031 7.099c.507 1.55 1.525 3.09 3.132 3.644 1.244.385 2.693.24 3.754-.55 1.252-.899 1.98-2.352 2.345-3.816a11.987 11.987 0 0 0-.028-5.667c-.39-1.514-1.175-3.004-2.49-3.907-.989-.698-2.306-.857-3.454-.503ZM40.901 20.964c1.023-.34 2.178-.416 3.184.022.012.9.003 1.8.006 2.7-1.102-.324-2.324-.282-3.368.214-1.47.655-2.488 2.218-2.466 3.83-.003 4.003.002 8.004-.001 12.007-.891.003-1.78.002-2.672.003-.003-6.242-.002-12.483-.002-18.724.892.003 1.784 0 2.675.003 0 .8-.006 1.602.008 2.403.624-1.039 1.456-2.046 2.636-2.458ZM49.73 21.694c1.535-.991 3.454-1.217 5.232-.938 1.914.31 3.61 1.506 4.729 3.064 1.45 2.051 2.012 4.62 1.947 7.103-4.485 0-8.97-.001-13.454.002.15 2.143.836 4.42 2.56 5.826 1.272 1.092 3.157 1.319 4.684.658 1.483-.648 2.49-2.042 3.065-3.513.901.004 1.803 0 2.704.004-.586 1.995-1.747 3.893-3.532 5.02-1.796 1.164-4.084 1.422-6.138.904-2.111-.56-3.843-2.16-4.807-4.091-1.308-2.63-1.52-5.74-.782-8.565.561-2.19 1.825-4.283 3.792-5.474m1.173 2.202c-1.455 1.142-2.25 2.93-2.561 4.717 3.482.028 6.965.045 10.447-.01-.288-1.228-.674-2.462-1.412-3.5-.72-1.042-1.809-1.89-3.079-2.097-1.194-.223-2.455.131-3.395.89ZM66.172 23.539c1.276-1.659 3.262-2.808 5.378-2.876 2.03-.171 4.106.534 5.574 1.955 2.249 2.105 3.067 5.307 3.023 8.3-4.484.011-8.969 0-13.453.007.107 2.198.865 4.542 2.67 5.93 1.165.93 2.797 1.14 4.198.688 1.662-.553 2.817-2.053 3.413-3.645.903.001 1.806-.003 2.709.002-.565 1.942-1.676 3.79-3.383 4.927-1.831 1.245-4.208 1.537-6.33.984-1.773-.49-3.297-1.711-4.281-3.25-1.206-1.862-1.699-4.112-1.685-6.31.057-2.376.687-4.813 2.167-6.712m3.188.382c-1.432 1.15-2.245 2.929-2.518 4.715 3.476-.006 6.952-.003 10.428-.001-.293-1.462-.828-2.922-1.813-4.064-.74-.833-1.75-1.473-2.873-1.597-1.148-.154-2.33.22-3.224.947ZM85.996 23.444c1.276-1.78 3.482-2.7 5.63-2.754 1.466-.049 3.033.26 4.164 1.255.994.837 1.555 2.126 1.549 3.42.003 4.79.003 9.583 0 14.375l-2.674-.001c0-4.247-.001-8.494.002-12.742-.006-.581.047-1.182-.155-1.74-.484-1.397-1.973-2.465-3.473-2.247-1.377.182-2.683.834-3.698 1.777-.689.66-1.335 1.51-1.35 2.504.002 4.15.005 8.299 0 12.448h-2.663c-.003-6.241 0-12.48-.001-18.72.888-.003 1.776-.002 2.666-.002.001.809-.003 1.619.003 2.427ZM102.854 23.769c1.097-1.617 2.852-2.862 4.827-3.062 1.738-.227 3.575.121 5.014 1.153 1.806 1.233 2.849 3.291 3.337 5.375-.909.005-1.816.007-2.723-.003-.394-1.334-1.075-2.641-2.187-3.512-1.247-.947-3.082-1.044-4.42-.23-1.209.738-1.979 2.014-2.429 3.327-.67 2.011-.74 4.208-.273 6.27.345 1.41.974 2.823 2.111 3.767 1.368 1.166 3.534 1.241 4.986.188 1.217-.914 1.91-2.346 2.296-3.785.913.003 1.825-.004 2.738.005-.457 2.155-1.48 4.324-3.345 5.602-1.604 1.146-3.69 1.42-5.597 1.075-1.877-.343-3.505-1.599-4.51-3.192-1.228-1.921-1.662-4.248-1.652-6.5.052-2.258.53-4.59 1.827-6.478ZM121.155 22.594c1.981-1.816 4.934-2.316 7.482-1.594 1.596.414 3.077 1.403 3.917 2.844.503.81.708 1.77.714 2.716.003 3.196-.006 6.393.003 9.59-.006.595.39 1.218.987 1.356.417.065.783-.2 1.15-.354-.002.853.002 1.707-.005 2.56-1.095.328-2.37.62-3.432.05-.931-.549-1.073-1.723-1.145-2.7-1.598 2.019-4.22 3.003-6.744 3.012-2.365.028-4.652-1.643-5.309-3.92-.363-1.455-.134-3.142.893-4.285 1.169-1.358 2.845-2.144 4.52-2.685 1.736-.533 3.527-.897 5.233-1.533.482-.197 1.113-.45 1.175-1.05.037-1.348-.74-2.7-1.987-3.257-1.735-.794-3.988-.63-5.425.695-.708.633-1.163 1.542-1.179 2.5-.9.015-1.8.014-2.698 0 .028-1.507.73-2.944 1.85-3.945m1.36 10.06c-.865.606-1.288 1.733-1.062 2.762.124.835.71 1.543 1.446 1.93 1.11.631 2.468.602 3.67.278 1.569-.408 3.037-1.403 3.797-2.86.166-.295.246-.633.233-.973a815.85 815.85 0 0 1-.002-4.249c-2.667 1.093-5.733 1.309-8.082 3.112ZM143.428 20.986c1.035-.36 2.233-.46 3.25.018-.006.894-.003 1.788-.003 2.68-1.046-.305-2.198-.284-3.208.147-1.22.485-2.16 1.586-2.496 2.85-.176.632-.128 1.293-.133 1.942.003 3.705 0 7.41.002 11.117h-2.678c-.003-6.24 0-12.482-.002-18.721.894-.002 1.787-.003 2.681 0-.001.8-.007 1.6.006 2.4.617-1.018 1.425-2.012 2.58-2.433ZM151.603 22.195c2.64-2.159 6.84-2.07 9.38.21 2.413 2.085 3.319 5.427 3.245 8.52-4.484 0-8.966-.005-13.448.001.125 2.16.842 4.463 2.59 5.857 1.203 1 2.929 1.262 4.388.725 1.608-.584 2.727-2.051 3.31-3.61l2.71.001c-.56 1.908-1.635 3.728-3.298 4.869-1.804 1.267-4.165 1.593-6.288 1.077-2.039-.52-3.753-2.005-4.74-3.842-1.32-2.43-1.634-5.337-1.114-8.034.428-2.201 1.466-4.373 3.265-5.774m1.463 2.065c-1.193 1.151-1.878 2.753-2.133 4.373 3.476 0 6.952-.003 10.43.002-.294-1.46-.82-2.917-1.808-4.056-.825-.956-2.03-1.632-3.314-1.635-1.189-.043-2.332.5-3.175 1.316ZM17.253 139.746a127.25 127.25 0 0 1 1.839-.003 460.86 460.86 0 0 0 0 2.02c-.612 0-1.225.002-1.839-.001.003-.673.002-1.344 0-2.016ZM65.153 139.743c.603-.001 1.207-.003 1.81 0v2.02c-.603 0-1.207 0-1.81.002v-2.022ZM114.583 139.743c.616-.003 1.23-.005 1.847.01-.002 5.44-.001 10.88-.001 16.322a33.38 33.38 0 0 1-1.843.034c-.007-5.456-.001-10.911-.003-16.366ZM36.927 140.425c.604.002 1.21.002 1.814-.001.008 1.128.005 2.258.003 3.387.676.002 1.353.002 2.03.002.002.5.002 1 0 1.503-.675.031-1.354.027-2.03.024.01 2.75-.014 5.5.012 8.25-.001 1.148 1.43 1.421 2.312 1.148-.006.463-.006.928-.006 1.393-1.033.192-2.186.372-3.148-.17-.685-.366-1.01-1.17-.989-1.916-.004-2.901.002-5.802-.001-8.7-.619-.007-1.237-.005-1.856-.005-.002-.51-.002-1.02 0-1.529.62.002 1.239.003 1.857-.003-.001-1.127-.003-2.256.002-3.383ZM147.58 140.425c.604.002 1.212.002 1.819 0 .005 1.129.001 2.257.002 3.388.676-.002 1.352-.002 2.028-.002v1.532c-.678-.008-1.353.003-2.029-.003.001 2.503.004 5.009-.001 7.514.014.509-.082 1.117.308 1.521.533.499 1.332.522 2.008.365-.005.463-.005.926-.005 1.39-1.028.193-2.174.37-3.133-.163-.69-.369-1.021-1.17-1.002-1.924-.003-2.9-.005-5.801.001-8.7-.62.003-1.237 0-1.854-.03 0-.502-.002-1.002.001-1.502.617 0 1.235.002 1.853 0-.004-1.129-.007-2.259.003-3.386ZM24.611 145.405c1.026-1.353 2.817-1.923 4.466-1.79.937.053 1.89.4 2.526 1.11.524.553.762 1.326.751 2.077-.001 3.094-.004 6.186 0 9.28-.612.028-1.224.033-1.837.005.002-2.95.005-5.898-.001-8.846.024-1.054-.891-1.949-1.895-2.115-.793-.083-1.58.196-2.267.57-.87.511-1.806 1.332-1.743 2.438.005 2.659.01 5.317 0 7.976-.609-.001-1.217-.001-1.825-.023.003-4.092-.003-8.183.003-12.274l1.822-.002c.006.531.006 1.062 0 1.594ZM46.15 144.122c.997-.535 2.171-.641 3.278-.486 1.437.208 2.716 1.127 3.493 2.338.828 1.278 1.144 2.827 1.126 4.335-3.063.012-6.124.003-9.187.004.082 1.431.59 2.944 1.763 3.844.941.755 2.318.844 3.386.311.885-.451 1.495-1.295 1.872-2.194.619-.001 1.238-.004 1.856.009-.379 1.124-.984 2.207-1.937 2.943-1.348 1.079-3.237 1.347-4.876.87-1.45-.44-2.623-1.588-3.236-2.959-.858-1.92-.861-4.186-.082-6.132.487-1.212 1.375-2.28 2.545-2.883m.732 1.461c-1.095.716-1.687 1.974-1.936 3.224 2.378 0 4.758.006 7.136-.003-.277-1.226-.804-2.502-1.895-3.216-.965-.672-2.338-.675-3.305-.005ZM60.383 143.888c.757-.35 1.65-.38 2.434-.105.003.59-.001 1.18.004 1.772-1.177-.326-2.567-.03-3.352.946-.459.531-.66 1.24-.637 1.934.006 2.55.001 5.1.003 7.65-.61.025-1.219.028-1.828.006 0-4.094-.003-8.187.003-12.28.606.002 1.214.002 1.822 0 .003.525.003 1.054.003 1.58.401-.602.87-1.2 1.548-1.503ZM74.446 143.684c1.375-.267 2.89-.085 4.053.744 1.391.923 2.206 2.512 2.488 4.127.394 2.223-.112 4.731-1.763 6.354-1.76 1.73-4.79 1.895-6.743.401-1.24-.916-1.971-2.385-2.241-3.878-.303-1.74-.065-3.599.797-5.151.712-1.284 1.959-2.294 3.41-2.597m.576 1.45c-.92.185-1.697.827-2.185 1.609-1.135 1.83-1.202 4.278-.178 6.173.534 1.016 1.555 1.828 2.732 1.884 1.173.11 2.31-.546 2.946-1.51 1.01-1.525 1.194-3.514.652-5.241-.318-.979-.876-1.93-1.761-2.492-.642-.431-1.452-.56-2.206-.422ZM87.799 143.832a3.296 3.296 0 0 1 2.304-.052c.005.592 0 1.185.005 1.778-.852-.227-1.79-.167-2.56.279-.866.482-1.45 1.444-1.424 2.445-.001 2.607.005 5.217-.001 7.825-.61.002-1.22.005-1.827-.016-.003-4.093-.004-8.186.002-12.278.607 0 1.215-.002 1.825 0l.003 1.575c.423-.638.936-1.274 1.673-1.556ZM105.054 143.731c1.406-.327 2.986-.078 4.128.84 1.154.887 1.834 2.265 2.09 3.675.307 1.638.172 3.372-.458 4.92-.557 1.346-1.662 2.506-3.07 2.956-1.244.369-2.677.311-3.788-.409-.51-.304-.894-.761-1.238-1.233.009 2.054.002 4.106.004 6.16l-1.774-.003c.001-5.61-.003-11.22.002-16.827.59.003 1.18.003 1.771.003 0 .498.001.998-.004 1.499.594-.748 1.395-1.355 2.337-1.58m.188 1.52c-.858.288-1.497 1.014-1.876 1.817-.602 1.286-.717 2.766-.486 4.156.195 1.118.663 2.252 1.56 2.988.901.771 2.325.83 3.294.15.65-.44 1.095-1.118 1.39-1.832.47-1.16.55-2.443.405-3.674-.167-1.15-.602-2.33-1.511-3.097-.745-.656-1.846-.811-2.776-.509ZM121.316 144.629c1.856-1.371 4.593-1.373 6.48-.064.903.64 1.53 1.704 1.51 2.828.008 2.069-.001 4.139.002 6.209-.031.392.16.82.535.981.32.145.635-.083.936-.17-.008.56-.005 1.12-.008 1.68-.77.18-1.646.414-2.382 0-.6-.355-.698-1.11-.745-1.739-1.13 1.325-2.894 1.955-4.602 1.967-1.439.005-2.855-.853-3.47-2.16-.471-1.058-.325-2.418.495-3.265.937-1.018 2.28-1.528 3.587-1.877 1.062-.298 2.154-.51 3.184-.914.24-.121.584-.24.614-.552.118-1.006-.58-1.973-1.518-2.293-1.203-.426-2.699-.277-3.633.654-.43.4-.631.969-.71 1.54-.599-.002-1.196 0-1.792-.003-.02-1.13.625-2.169 1.517-2.822m1.447 6.333c-.43.23-.868.48-1.185.86-.614.755-.435 2.022.399 2.546 1.24.838 2.915.495 4.12-.242.717-.486 1.468-1.222 1.4-2.162-.004-.847-.007-1.694-.002-2.539-1.558.57-3.239.785-4.732 1.537ZM135.258 145.396c.98-1.25 2.606-1.847 4.164-1.796 1.034.006 2.123.33 2.83 1.123.53.552.761 1.328.754 2.085.003 3.092-.005 6.186.003 9.28-.614.027-1.23.024-1.842-.004-.001-2.95.003-5.898-.001-8.845.03-1-.801-1.855-1.734-2.084-.842-.162-1.698.15-2.43.548-.87.507-1.798 1.329-1.745 2.428.006 2.654.004 5.307.001 7.96-.605.02-1.21.022-1.815.004-.003-4.094-.004-8.188 0-12.284.605 0 1.209.002 1.814 0 .004.527.004 1.055.001 1.585ZM156.365 143.8a7.634 7.634 0 0 1 3.842-.027c.89.24 1.768.733 2.236 1.556.292.477.364 1.042.411 1.59-.603.002-1.205-.01-1.806-.01-.093-.408-.174-.857-.506-1.144-.675-.616-1.65-.744-2.529-.694-.743.037-1.507.363-1.937.99-.335.486-.17 1.163.248 1.545.719.69 1.713.94 2.597 1.347 1.204.54 2.539.907 3.526 1.83 1.188 1.08.987 3.114-.083 4.209-1.003 1.04-2.527 1.298-3.91 1.328-1.476.023-3.107-.413-4.023-1.651-.531-.657-.726-1.5-.77-2.326.605-.008 1.211-.003 1.818-.007.063.663.286 1.35.83 1.775 1.077.885 2.646.847 3.875.319.58-.26 1.174-.737 1.224-1.415.086-.633-.348-1.182-.829-1.533-1.086-.791-2.405-1.136-3.619-1.669-.918-.397-1.855-.89-2.448-1.722-.509-.692-.541-1.631-.3-2.43.302-.966 1.208-1.61 2.153-1.862ZM17.273 143.81c.606.003 1.21.003 1.817.003.002 4.092 0 8.185.002 12.278-.612.024-1.226.02-1.839-.006.015-4.091-.022-8.184.02-12.275ZM65.154 143.813c.602 0 1.204 0 1.806-.002.004 4.099.012 8.199-.004 12.298-.6-.003-1.201-.002-1.8-.002-.006-4.098-.005-8.197-.002-12.294Z"/></g><g fill="#A0CC39"><path d="M18.366 54.69c.462-.09.932-.122 1.402-.128 46.23.005 92.46 0 138.69.003 1.21.015 2.452-.1 3.626.261 2.085.598 3.805 2.308 4.412 4.391.31.984.28 2.027.273 3.047-.003 19.87.004 39.738-.003 59.608.004 2.387-1.436 4.69-3.57 5.751-1 .516-2.133.735-3.253.704-46.233-.006-92.468 0-138.702-.003-1.125-.012-2.279.087-3.372-.245-2.042-.56-3.74-2.188-4.399-4.2-.42-1.163-.337-2.419-.343-3.633V62.554c0-1.178-.062-2.391.336-3.521.705-2.185 2.647-3.909 4.903-4.343m23.37 5.545c-.177 2.83-1.145 5.552-2.418 8.063-1.438-.344-2.95-.407-4.386-.018-.825 3.276-1.24 6.666-1.058 10.045-.236-.065-.472-.13-.707-.193-1.21 1.967-2.263 4.053-2.88 6.287-.355 1.231-.215 2.549.137 3.766.638 2.18 2.04 4.093 3.813 5.493 1.878 1.493 4.134 2.452 6.45 3.026.563.117 1.128.236 1.67.436-.638.066-1.28.059-1.92.053-3.997.004-7.993.003-11.988.013.66 1.263 1.376 2.498 2.067 3.746.139.257.257.525.348.804 1.838 6.285 3.684 12.568 5.527 18.851 5.74.003 11.48.002 17.22.002 1.487-5.891 2.96-11.787 4.445-17.679.186-.728.316-1.482.656-2.161.594-1.195 1.165-2.402 1.747-3.603-5.39-.004-10.779.018-16.169.024.024-.213.048-.424.07-.633a32.324 32.324 0 0 0 9.43-4.545c3.41-2.394 6.31-5.608 7.993-9.444a21.365 21.365 0 0 0 1.158-3.364c.907-3.324 2.367-6.506 2.865-9.936-2.937 1.257-5.654 2.981-8.194 4.91.227-1.853.265-3.748-.096-5.588-.387-2.081-1.337-4.059-2.756-5.636a40.3 40.3 0 0 0-4.92 4.9c-.277-.876-.637-1.732-1.168-2.486-1.68-2.42-4.326-3.91-6.936-5.133m43.686.005c-.165 2.828-1.14 5.549-2.412 8.058-1.44-.345-2.951-.406-4.388-.018-.812 3.277-1.252 6.665-1.048 10.044l-.715-.19c-.87 1.405-1.647 2.869-2.25 4.408-.443 1.157-.896 2.36-.82 3.62.09 2.507 1.358 4.862 3.118 6.603 2.023 2.018 4.707 3.249 7.454 3.933.567.126 1.14.235 1.686.44-.649.07-1.3.06-1.95.055-3.987.006-7.973.003-11.96.013.666 1.253 1.37 2.484 2.06 3.724.35.617.499 1.316.698 1.99 1.732 5.896 3.455 11.793 5.189 17.69 5.74 0 11.478 0 17.22-.003 1.593-6.32 3.177-12.644 4.766-18.966.1-.37.254-.724.425-1.067.564-1.13 1.11-2.27 1.657-3.408-5.403-.009-10.806.027-16.21.018.057-.21.078-.435.186-.626.495-.227 1.037-.332 1.547-.522a32.605 32.605 0 0 0 7.888-4.077c3.547-2.512 6.537-5.92 8.163-9.982.672-1.59.984-3.295 1.563-4.916.828-2.566 1.838-5.104 2.197-7.792-2.929 1.263-5.642 2.982-8.178 4.907.218-1.795.26-3.63-.067-5.413-.373-2.142-1.323-4.193-2.794-5.803-1.766 1.495-3.425 3.12-4.91 4.894-.359-1.186-.939-2.307-1.752-3.246-1.69-1.992-4.023-3.287-6.363-4.368m43.687-.002c-.155 2.83-1.138 5.549-2.41 8.059-1.44-.346-2.955-.407-4.392-.012-.808 3.277-1.232 6.66-1.053 10.037l-.71-.187c-1.19 1.96-2.243 4.028-2.864 6.244-.34 1.153-.25 2.393.055 3.544.497 1.903 1.584 3.625 3.004 4.976 1.912 1.852 4.389 3.017 6.939 3.702.681.198 1.401.263 2.06.549-1.538.088-3.08.023-4.62.046-3.096 0-6.193.003-9.288.008.726 1.383 1.531 2.721 2.253 4.106.392 1.027.626 2.107.959 3.156 1.58 5.378 3.154 10.76 4.73 16.138 5.74.014 11.479-.003 17.218.008 1.62-6.365 3.196-12.743 4.816-19.108.58-1.489 1.38-2.883 2.04-4.338-5.395-.007-10.79.024-16.186.02.035-.216.07-.432.107-.644 3.015-.868 5.886-2.216 8.518-3.919 3.687-2.403 6.886-5.695 8.736-9.724.628-1.324 1.062-2.727 1.43-4.14.92-3.165 2.26-6.223 2.747-9.503-2.92 1.273-5.636 2.973-8.167 4.898.157-1.849.24-3.728-.128-5.558a11.9 11.9 0 0 0-2.731-5.634c-1.806 1.459-3.44 3.126-4.946 4.89-.433-1.5-1.283-2.856-2.391-3.949-1.634-1.6-3.662-2.72-5.726-3.665Z"/><path d="M50.078 68.702c1.22-1.698 2.71-3.182 4.29-4.544 1.354 1.793 2.165 3.97 2.363 6.207.122 1.567.066 3.15-.192 4.7-4.476 3.552-8.41 7.816-11.44 12.669 2.048-4.6 4.234-9.245 4.978-14.272.221-1.576.274-3.188.001-4.76ZM93.77 68.698c1.224-1.69 2.711-3.172 4.283-4.537 1.397 1.825 2.204 4.066 2.381 6.353.162 1.516.016 3.04-.195 4.543-4.464 3.553-8.405 7.8-11.424 12.652 1.228-2.818 2.538-5.608 3.52-8.527 1.12-3.352 2.006-6.937 1.435-10.484ZM137.46 68.702c1.224-1.695 2.717-3.178 4.291-4.547a12.013 12.013 0 0 1 2.333 5.928c.2 1.653.09 3.326-.153 4.968-4.539 3.622-8.55 7.95-11.578 12.917 1.594-3.44 3.16-6.912 4.233-10.556.809-2.812 1.357-5.788.874-8.71ZM42.675 65.253c2.05 1.354 4.141 3.005 5.001 5.396a20.019 20.019 0 0 0-1.808 3.741c-.849-2.216-2.48-4.09-4.53-5.273.477-1.276.947-2.557 1.337-3.864ZM86.357 65.259c1.94 1.25 3.86 2.79 4.84 4.937.273.438-.071.86-.28 1.239-.553.935-.982 1.937-1.36 2.954a10.398 10.398 0 0 0-4.526-5.266c.468-1.28.959-2.551 1.326-3.864ZM128.718 69.12c.485-1.28.945-2.567 1.348-3.876 2.038 1.374 4.131 3.01 4.997 5.399a20.503 20.503 0 0 0-1.811 3.73 10.428 10.428 0 0 0-4.534-5.253ZM35.652 68.903c1.146-.12 2.31-.065 3.424.24-.788 3.586-1.667 7.245-1.242 10.942-.958-.565-1.954-1.065-3-1.443-.268-3.266.28-6.527.818-9.739ZM79.355 68.885c1.142-.082 2.305-.06 3.413.265-.784 3.582-1.672 7.24-1.244 10.934a17.817 17.817 0 0 0-2.995-1.443c-.27-3.271.274-6.54.826-9.756ZM123.031 68.91c1.144-.13 2.308-.073 3.422.23-.763 3.59-1.672 7.243-1.238 10.94-.956-.561-1.95-1.06-2.994-1.44-.28-3.263.284-6.52.81-9.73Z"/><path d="M40.95 70.032c2.464 1.472 4.11 4.109 4.527 6.933.284-.129.57-.254.854-.38.07-1.79.814-3.477 1.754-4.973.45 2.088.078 4.239-.48 6.266-.71 2.56-1.754 5.015-2.891 7.411-1.992-.599-3.855-1.914-4.716-3.855-1.08-2.408-.795-5.163-.214-7.662.304-1.272.71-2.516 1.166-3.74ZM84.641 70.032a9.514 9.514 0 0 1 3.947 4.754c.273.706.437 1.447.59 2.186.278-.13.556-.258.835-.386.084-1.787.818-3.47 1.757-4.965.445 2.003.102 4.078-.413 6.033-.668 2.505-1.677 4.901-2.762 7.25-.095.103-.137.415-.327.325-1.95-.574-3.734-1.923-4.58-3.803-.822-1.808-.848-3.867-.57-5.8.28-1.919.848-3.782 1.523-5.594ZM128.33 70.04c2.486 1.448 4.113 4.114 4.537 6.934.277-.13.557-.26.838-.388.084-1.777.805-3.457 1.75-4.94.452 1.916.126 3.905-.344 5.784-.701 2.722-1.815 5.314-3.001 7.853-2.056-.59-3.954-1.99-4.792-4.001-.992-2.336-.73-4.972-.179-7.383.302-1.313.727-2.594 1.19-3.86ZM57.159 77.095a90.737 90.737 0 0 1 5.089-3.227c-.421 2.116-.843 4.234-1.424 6.313-2.415 1.145-4.772 2.415-7.022 3.861 1.184-1.83 2.258-3.766 2.815-5.887.117-.379.158-.845.542-1.06ZM101.378 76.735a98.197 98.197 0 0 1 4.555-2.861c-.409 2.116-.838 4.23-1.418 6.306a64.135 64.135 0 0 0-7.029 3.865c1.133-1.72 2.13-3.551 2.727-5.53.116-.385.189-.785.354-1.152.218-.267.533-.434.811-.628ZM144.528 77.11a87.744 87.744 0 0 1 5.111-3.24c-.438 2.114-.847 4.238-1.43 6.32a62.29 62.29 0 0 0-7.034 3.854c1.236-1.867 2.315-3.873 2.875-6.052.09-.326.15-.706.478-.881Z"/><path d="M51.945 81.308c1.196-1.099 2.418-2.174 3.733-3.132-.921 2.718-2.268 5.298-4.037 7.56.12.148.245.295.369.443 2.626-1.896 5.406-3.587 8.325-4.993-1.832 4.087-5.274 7.247-9.144 9.395-2.173 1.215-4.474 2.194-6.836 2.98.09-2.215 1.027-4.291 2.225-6.118 1.496-2.28 3.383-4.273 5.365-6.135ZM91.176 86.161c2.333-3.038 5.168-5.666 8.196-8-.918 2.722-2.26 5.307-4.037 7.57l.325.448c2.664-1.856 5.42-3.599 8.362-4.986-1.8 4.02-5.167 7.146-8.957 9.285a37.92 37.92 0 0 1-7.027 3.076c.141-2.747 1.516-5.24 3.138-7.393ZM134.364 86.854c2.396-3.353 5.46-6.177 8.7-8.699-.916 2.728-2.264 5.32-4.042 7.585l.367.437c2.63-1.893 5.41-3.58 8.326-4.993-1.63 3.665-4.584 6.607-7.964 8.7-2.495 1.557-5.208 2.744-7.997 3.667.07-2.456 1.234-4.72 2.61-6.697ZM32.524 81.707c.646.217 1.284.46 1.915.721a20.912 20.912 0 0 0 1.278 3.662 13.827 13.827 0 0 0-3.515-1.719c-.175-.104-.581-.099-.466-.4.148-.789.484-1.527.788-2.264ZM75.379 84.187c.17-.866.476-1.695.858-2.49.633.237 1.266.479 1.898.727.305 1.255.739 2.476 1.263 3.656-1.228-.844-2.606-1.439-4.02-1.893ZM119.902 81.716c.65.205 1.288.447 1.92.708.32 1.25.737 2.473 1.268 3.651-1.234-.84-2.614-1.432-4.029-1.893.186-.85.487-1.671.841-2.466Z"/><path d="M35.559 83.071c2.151 1.165 4.202 2.708 5.435 4.866 1.092 1.873 1.421 4.11 1.169 6.246-2.44-.056-4.95-.515-7.04-1.84-1.572-.977-2.906-2.457-3.394-4.273-.297-.991-.292-2.039-.213-3.061 1.251.345 2.45.913 3.451 1.748 1.213 1.021 2.244 2.23 3.342 3.367l.773-.586c-1.483-1.968-2.722-4.131-3.523-6.467ZM79.252 83.069c2.058 1.12 4.023 2.576 5.273 4.597 1.211 1.925 1.614 4.289 1.31 6.527-2.538-.084-5.16-.57-7.29-2.027-1.498-.987-2.72-2.467-3.159-4.229-.254-.956-.258-1.955-.176-2.933 1.18.335 2.318.852 3.282 1.617 1.292 1.038 2.368 2.306 3.502 3.504l.785-.585c-1.485-1.967-2.73-4.133-3.527-6.471ZM122.941 83.067c2.214 1.198 4.323 2.806 5.54 5.058 1.02 1.834 1.292 3.994 1.072 6.058-2.584-.058-5.257-.577-7.41-2.082-1.418-.96-2.58-2.364-3.032-4.035-.295-.99-.286-2.035-.215-3.054 1.314.346 2.566.968 3.595 1.86 1.151.996 2.155 2.141 3.186 3.253.264-.196.528-.39.795-.584-1.489-1.967-2.728-4.135-3.53-6.474ZM32.27 99.633c6.27-.004 12.543-.004 18.815 0-1.457 6.343-2.911 12.687-4.37 19.03-2.693.007-5.387 0-8.08.003-2.127-6.343-4.245-12.689-6.365-19.033ZM75.961 99.636c6.274-.013 12.546-.005 18.82-.005-1.461 6.345-2.913 12.69-4.375 19.033-2.694.002-5.388.002-8.083 0-2.114-6.344-4.249-12.682-6.362-19.028ZM119.651 99.636c6.274-.01 12.547-.006 18.822-.002a6963.009 6963.009 0 0 0-4.367 19.029c-2.699.006-5.396.001-8.094.001-2.116-6.344-4.24-12.685-6.36-19.028Z"/></g></g></svg>