<?xml version="1.0" encoding="UTF-8"?><svg width="374" height="600" xmlns="http://www.w3.org/2000/svg"><path d="M132.737.03c6.06.313 10.898 4.362 16.095 7 6.199 2.829 12.054 6.344 17.755 10.05 7.049 4.18 13.775 9.017 19.593 14.798 9.068 7.63 16.395 17.174 22.33 27.384 2.73 4.64 4.245 9.807 5.987 14.857 5.087-6.402 10.876-12.197 16.534-18.095 9.5-10.516 20.427-19.607 30.74-29.305 1.244-.914 2.386.972 3.205 1.746 3.455 4.37 7.349 8.434 10.137 13.287 3.447 5.086 5.731 10.816 8.593 16.224 2.576 6.029 4.325 12.387 6.25 18.643 1.8 9.442 3.491 18.98 3.564 28.619-.168 6.05.227 12.116-.204 18.16-.645 4.159-.666 8.368-.55 12.556 4.026-2.207 7.18-5.671 11.213-7.864 4.611-2.558 8.344-6.424 13.02-8.88 7.078-3.726 13.175-9.083 20.406-12.54 2.679-1.396 4.992-3.442 7.81-4.59 4.34-1.87 8.204-4.662 12.566-6.482 4.743-2.134 9.398-4.45 14.023-6.818 3.045 2.119.996 5.875.3 8.638-3.762 21.975-12.156 42.76-18.729 63.983-1.595 4.597-3.396 9.135-4.56 13.87-1.215 4.488-3.125 8.77-4.025 13.36-2.174 9.873-5.972 19.264-9.259 28.794-1.778 4.034-3.315 8.193-5.445 12.066-2.518 4.15-4.15 8.784-6.916 12.796-4.83 7.184-9.142 14.72-14.287 21.691-2.196 2.638-4.699 5.013-6.682 7.82-13.167 15.58-28.376 29.342-44.61 41.649-4.632 2.858-9.192 5.832-13.466 9.201-5.702 2.96-10.92 6.723-16.541 9.837-5.145 3.34-10.89 5.59-16.16 8.711-8.088 4.137-16.717 7.118-24.82 11.196-8.153 1.82-15.596 5.978-23.808 7.6-2.862.308-2.32 4.006-3.118 6.066 9.961-.058 19.944.205 29.913.08 3.418-.087 6.777-.847 10.203-.752 40.093.095 80.186-.073 120.28.08-.088 1.652-.417 3.296-1.244 4.75-2.891 5.248-5.358 10.707-8.073 16.042-2.225 5.226-5.277 10.064-7.378 15.34-1.69 4.663-4.75 8.909-4.677 14.068-1.017 1.915-1.185 4.107-1.193 6.249.14 2.419-1.734 4.253-2.334 6.482-1.2 4.465-2.233 8.982-3.448 13.447-.556 1.9-.11 3.917-.585 5.832-.578 1.367-1.61 2.529-1.888 4.02-3.206 13.76-7.085 27.347-10.203 41.123-2.152 7.3-3.828 14.725-5.621 22.121-4.97 19.002-9.551 38.105-14.484 57.114-2.057 9.062-4.45 18.043-6.888 27.003-13.262.497-26.538.066-39.808.212-40.254-.007-80.508.015-120.763-.014-3.22-.052-6.44.16-9.66.16-1.194.132-2.013-.979-2.38-1.966-1.895-5.853-2.934-11.963-5.079-17.736-2.013-4.086-2.261-8.72-3.725-12.987-1.99-5.978-3.572-12.08-5.358-18.124-2.986-8.083-4.193-16.736-7.677-24.643-1.83-9.15-4.97-17.95-7.685-26.85-1.018-3.932-1.808-7.923-3.177-11.752-1.398-3.859-1.94-7.988-3.6-11.752-1.033-2.17-1.186-4.604-1.933-6.855-2.444-6.877-4.113-13.995-6.016-21.033-3.052-9.493-5.621-19.132-8.607-28.64-1.083-3.464-1.53-7.22-3.645-10.26-1.888-2.895-2.869-6.264-4.75-9.165-3.718-5.277-5.884-11.467-9.573-16.765-1.574-2.156-2.84-4.51-3.96-6.914-1.251-2.799-3.132-5.254-4.216-8.126 14.236.548 28.486.19 42.736.292 27.63-.095 55.28.197 82.902-.168 3.499.204 7.085.511 10.488-.548-7.655-1.477-15.172-3.545-22.703-5.555-6.185-1.52-11.989-4.238-18.1-6.014-3.725-1.111-6.924-3.406-10.466-4.94-2.606-1.28-5.394-2.215-7.744-3.947-6.601-4.626-14.25-7.827-20.024-13.571-7.363-6.03-13.914-12.987-19.828-20.426-5.064-7.36-10.107-14.858-13.35-23.233-3.776-8.251-5.62-17.24-6.638-26.214-.563-7.981-.22-16.115 2.13-23.81 1.135-4.641 3.374-8.924 4.487-13.572.82-3.376 2.612-6.394 3.952-9.566 2.1-4.297 3.293-9.011 5.994-13.009 2.415-3.413 3.33-7.622 5.782-11.006 3-4.363 4.838-9.522 8.395-13.49 2.071.08 4.099.606 6.119 1.044.739-10.64.08-21.325.329-31.98.959-15.186 3.264-30.256 5.877-45.238.264-4.845 2.423-9.274 2.847-14.09.813-2.762 1.142-6.146 3.535-8.031 3.484-.804 7.114-.914 10.598-1.784 6.514-.591 13.108-.394 19.593.395 3.974.314 8.022.548 11.791 1.944 2.642-4.487 4.472-9.376 6.785-14.024a42.993 42.993 0 0 0 2.708-6.746c2.635-7.396 5.994-14.558 7.831-22.217 2.613-8.864 4.67-17.897 5.76-27.084.227-3.076.08-6.168.505-9.23Zm121.041 45.054c-3.535 3.808-7.75 6.892-11.344 10.64-4.596 4.43-8.812 9.224-13.21 13.835a293.086 293.086 0 0 1-8.952 10.802c-1.383 1.922-3.257 4.004-2.906 6.555.388 2.828 1.903 5.466 1.662 8.382-.622 10.648.637 21.413-1.42 31.959-1.625 16.59-5.943 32.733-10.43 48.73-1.837 5.606-4.062 11.095-5.408 16.853-.505 1.996-1.56 3.786-2.306 5.686-1.464 3.669-2.378 7.542-4.216 11.065-1.251 2.375-1.639 5.072-2.7 7.52-3.352 7.25-6.287 14.675-9.361 22.041-2.847 7.294-6.931 14.047-9.588 21.42 3.667-3.624 5.687-8.528 9.112-12.372 3.66-5.503 7.736-10.721 11.923-15.837 6.887-9.56 14.682-18.417 22.652-27.077 3.842-4.904 8.578-8.981 12.662-13.666 4.699-4.326 8.848-9.223 13.803-13.272 3.462-2.88 6.097-6.614 9.676-9.354 6.163-5.02 11.747-10.728 18.1-15.515 2.737-2.12 5.855-3.99 7.707-6.994 2.43-5.95 2.122-12.534 3.045-18.797.483-6.497.182-13.038.204-19.55-.614-6.226-.731-12.591-2.84-18.547-1.222-12.848-6.279-25.03-12.486-36.227-2.13-4.648-5.24-8.733-8.211-12.862a35.8 35.8 0 0 0-5.168 4.582Zm-110.546 6.124c-.644 3.216-1.595 6.366-2.73 9.442-1.485 4.02-2.312 8.259-3.915 12.234-2.174 4.787-3.843 9.779-5.643 14.712 7.216 5.452 15.099 10.202 21.232 16.955 10.122 9.222 17.266 21.266 22.411 33.844 2.29-4.312 3.367-9.128 5.401-13.557 3.66-7.147 7.327-14.295 11.703-21.047-2.576-7.272-5.877-14.478-11.227-20.156-5.818-7.66-13.086-14.032-20.434-20.17-5.57-4.13-10.723-8.88-16.798-12.257Zm-69.09 35.818c-.923 5.371-2.101 10.699-3.03 16.063-.498 5.627-1.582 11.174-2.35 16.758-.571 3.507-.073 7.11-.966 10.574-1.135 5.416-1.223 10.955-1.837 16.43-.38 2.433-.886 4.852-.85 7.33.015 7.074.081 14.14-.014 21.215.015 1.842-.088 3.712.293 5.525.688 1.038 1.808 1.651 2.971 2.017 3.243 1.067 6.185 2.843 9.383 4.02 5.746 2.243 10.876 5.663 16.292 8.55-.497-8.938-1.91-17.927-.6-26.872.351-7.235 1.04-14.441 1.72-21.654 1.427-7.754 2.51-15.567 3.557-23.372 2.174-5.29 2.525-11.064 3.616-16.626.497-2.075 1.332-4.07 1.559-6.212.314-3.712 1.64-7.213 2.408-10.83-3.118-1.265-6.287-2.631-9.69-2.865-7.466-.358-15.07-1.878-22.463-.051Zm52.081 12.073c-1.778 4.801-4.003 9.5-4.83 14.594-.454 2.923-2.21 5.423-2.92 8.273-3.265 11.934-6.66 23.934-7.554 36.321-2.503 12.607-.666 25.462 1.413 37.981 1.91 6.607 3.908 13.374 7.897 19.074 4.545 8.668 11.732 15.757 19.761 21.245 7.195 4.305 14.44 9.303 22.916 10.553 1.537-3.026 3.147-6.015 4.42-9.164 2.27-5.905 5.3-11.481 7.503-17.416 6.096-12.424 9.873-25.79 14.542-38.77.593-2.024.49-4.194 1.252-6.168 2.613-6.095 3.615-12.701 4.874-19.169 1.193-5.795 2.16-11.678 2.13-17.62-.066-3.303.886-6.577.425-9.88-.571-4.605-.396-9.362-2.042-13.77-2.401 5.752-6.068 10.868-8.432 16.642-1.617 3.215-2.276 6.782-3.674 10.085-2.547 6.658-3.323 13.798-3.696 20.865-3.191 1.089-5.892 4.02-9.412 3.815-1.31-1.418-1.384-3.48-1.786-5.277-.527-3.917-1.91-7.622-2.942-11.423-1.31-5.283-4.12-9.997-6.207-14.981-2.21-4.254-5.101-8.105-7.538-12.227-6.441-8.353-14.038-15.851-22.601-22.027-1.025-.804-2.277-1.19-3.499-1.556Zm178.796 57.113c-6.536 5.086-14.038 8.755-20.581 13.834-.886 1.615-.945 3.537-1.332 5.306-1.31 6.263-4.092 12.08-5.848 18.22-2.518 6.92-6.134 13.38-8.973 20.162-1.662 2.982-3.66 5.767-5.182 8.829-1.713 3.245-4.89 5.956-5.05 9.837 1.83-1.236 3.652-2.485 5.613-3.501 2.723-1.44 5.014-3.566 7.78-4.948 10.445-5.503 20.537-11.649 31.15-16.83 6.185-3.508 12.75-6.278 19.095-9.464.879-.38 1.003-1.462 1.347-2.237a110.274 110.274 0 0 0 3.667-15.471c3.03-9.07 4.054-18.621 6.404-27.859 1.376-4.874 1.727-9.946 2.854-14.872-10.407 6.183-20.8 12.387-30.944 18.994Zm-42.736 30.417c-6.616 5.831-13.92 10.874-20.12 17.174-12.464 11.408-24.745 23.072-35.782 35.883-4.201 3.932-7.59 8.572-10.891 13.25-7.575 8.762-13.738 18.606-19.834 28.42-1.8 3.187-2.877 6.717-4.736 9.874-2.203 3.903-3.33 8.273-5.255 12.307-1.04 2.098-1.237 4.458-1.75 6.716-1.704 6.249-3.124 12.695-3.051 19.214 3.491-1.506 7.45-2.04 10.576-4.305 3.462-.307 6.44-2.192 9.646-3.325 10.906-4.07 21.503-8.909 31.874-14.178 15.085-7.272 29.298-16.188 42.992-25.79 4.618-3.925 9.464-7.58 14.06-11.533 7.407-6.972 14.93-13.87 21.415-21.727 2.247-2.426 3.938-5.291 6.177-7.725 2.401-2.58 4.348-5.54 6.039-8.63 3.015-5 6.74-9.596 9.06-14.997 1.018-2.426 2.167-4.801 3.367-7.147-5.51 2.44-10.942 5.115-16.065 8.302-7.597 4.078-15.326 7.936-22.674 12.475-5.116 3.778-10.957 6.424-16.021 10.29-6.492 3.551-12.428 7.987-18.444 12.277-2.415 1.477-4.487 3.552-7.195 4.524-1.976-1.425-5.79-3.902-3.813-6.643 5.24-6.344 9.837-13.177 14.367-20.024 2.16-4.743 5.585-8.77 7.722-13.528 1.478-3.734 3.996-6.928 5.496-10.64 3.477-8.77 7.897-17.197 10.554-26.273-2.693 1.76-5.218 3.749-7.714 5.759Zm-219.928 28.37c-.944 3.595-3.081 6.716-4.113 10.282-1.142 3.786-2.416 7.55-3.272 11.416 2.013.73 4.026 1.461 6.009 2.287 2.393.892 4.706 2.368 7.356 2.105 3.893 3.084 8.724 4.487 13.093 6.716 2.65 1.206 5.014 2.916 7.517 4.385.241-1.177.937-2.397.483-3.603-1.098-4.114-3.096-7.93-4.157-12.058-1.223-4.838-3.25-9.435-4.45-14.28-1.56-2.354-4.501-3.165-7.012-4.115-3.806-1.074-7.363-3.384-11.454-3.135Zm31.289 13.081c2.803 7.74 6.528 15.1 9.763 22.656 3.916 7.98 8.205 15.836 13.46 23.035 2.803 4.867 5.899 9.588 9.646 13.798.747 1.089 2.284 2.17 1.676 3.661-2.174 1.871-4.56 3.508-7.011 4.992-1.098.738-2.796.796-3.55-.453-8.358-9.91-17.697-18.914-26.978-27.94-3.432-2.93-6.587-6.24-10.561-8.462-3.96-2.054-7.407-4.963-11.476-6.812-4.963-2.229-10.05-4.21-15.29-5.685-.446 4.59-1.537 9.179-.893 13.812 1.128 7.191 1.955 14.565 4.933 21.289 4.48 12.738 13.95 23.137 24.68 31.045 9.537 7.688 20.94 12.709 32.548 16.407 7.209 1.922 14.418 4.224 21.927 4.64 6.917 1.118 13.994 2.222 21.006 1.36-.337-5.204 1.288-10.363.351-15.537-.446-3.867-.095-7.791-.849-11.628-1.486-11.16-5.504-21.83-10.686-31.768-4.516-7.645-9.632-15.033-16.028-21.238-5.153-5.386-10.642-10.553-17.032-14.47a67.49 67.49 0 0 0-8.687-5.934c-3.367-2.697-7.187-4.692-10.95-6.768ZM41.03 391.242c.608 4.605 2.803 8.756 4.18 13.148 1.434 3.632 1.836 7.666 3.952 11.02.256 3.684 2.532 6.753 3.103 10.356.593 3.515 2.818 6.482 3.293 10.02.557.519 1.135 1.03 1.713 1.542.651 4.596 1.413 9.274 3.506 13.483 2.671 5.737 3.667 12.044 6.075 17.883 2.21 5.62 3.278 11.628 5.767 17.145 2.254 5.32 2.971 11.16 5.496 16.37 2.701 6.972 4.48 14.251 7.254 21.194 4.816 14.536 9.529 29.101 14.55 43.564 1.361 3.947 1.895 8.543 5.108 11.525 1.786.46 3.66.329 5.49.358 24.006-.234 48.034.249 72.033-.241 1.91-8.565 4.033-17.094 5.819-25.688.329-3.515 1.72-6.797 2.371-10.246 1.405-8.025 3.96-15.793 5.445-23.803 1.815-7.483 3.55-14.989 5.248-22.502 1.588-5.459 1.713-11.247 3.857-16.56 1.003-6.694 3.184-13.133 4.392-19.798 2.13-6.986 2.81-14.302 4.97-21.274 1.785-7.498 3.695-14.982 4.822-22.611 1.625-3.194 1.296-6.9 2.54-10.217 1.618-4.707 2.371-9.632 3.33-14.5-9.456-.898-18.978-.211-28.463-.423H75.386c-11.447.16-22.916-.33-34.356.255Z" fill="#A1CC3A" fill-rule="evenodd"/></svg>