<?xml version="1.0" encoding="UTF-8" ?>
<!DOCTYPE svg PUBLIC "-//W3C//DTD SVG 1.1//EN" "http://www.w3.org/Graphics/SVG/1.1/DTD/svg11.dtd">
<svg width="639pt" height="899pt" viewBox="0 0 639 899" version="1.1" xmlns="http://www.w3.org/2000/svg">
<g id="#333333ff">
<path fill="#333333" opacity="1.00" d=" M 0.00 0.00 L 639.00 0.00 L 639.00 0.87 C 480.67 0.68 322.33 0.84 164.00 0.79 C 109.33 0.83 54.67 0.70 0.00 0.85 L 0.00 0.00 Z" />
<path fill="#333333" opacity="1.00" d=" M 273.36 77.04 C 281.64 77.47 288.25 83.01 295.35 86.62 C 303.82 90.49 311.82 95.30 319.61 100.37 C 329.24 106.09 338.43 112.71 346.38 120.62 C 358.77 131.06 368.78 144.12 376.89 158.09 C 380.62 164.44 382.69 171.51 385.07 178.42 C 392.02 169.66 399.93 161.73 407.66 153.66 C 420.64 139.27 435.57 126.83 449.66 113.56 C 451.36 112.31 452.92 114.89 454.04 115.95 C 458.76 121.93 464.08 127.49 467.89 134.13 C 472.60 141.09 475.72 148.93 479.63 156.33 C 483.15 164.58 485.54 173.28 488.17 181.84 C 490.63 194.76 492.94 207.81 493.04 221.00 C 492.81 229.28 493.35 237.58 492.76 245.85 C 491.88 251.54 491.85 257.30 492.01 263.03 C 497.51 260.01 501.82 255.27 507.33 252.27 C 513.63 248.77 518.73 243.48 525.12 240.12 C 534.79 235.02 543.12 227.69 553.00 222.96 C 556.66 221.05 559.82 218.25 563.67 216.68 C 569.60 214.12 574.88 210.30 580.84 207.81 C 587.32 204.89 593.68 201.72 600.00 198.48 C 604.16 201.38 601.36 206.52 600.41 210.30 C 595.27 240.37 583.80 268.81 574.82 297.85 C 572.64 304.14 570.18 310.35 568.59 316.83 C 566.93 322.97 564.32 328.83 563.09 335.11 C 560.12 348.62 554.93 361.47 550.44 374.51 C 548.01 380.03 545.91 385.72 543.00 391.02 C 539.56 396.70 537.33 403.04 533.55 408.53 C 526.95 418.36 521.06 428.67 514.03 438.21 C 511.03 441.82 507.61 445.07 504.90 448.91 C 486.91 470.23 466.13 489.06 443.95 505.90 C 437.62 509.81 431.39 513.88 425.55 518.49 C 417.76 522.54 410.63 527.69 402.95 531.95 C 395.92 536.52 388.07 539.60 380.87 543.87 C 369.82 549.53 358.03 553.61 346.96 559.19 C 335.82 561.68 325.65 567.37 314.43 569.59 C 310.52 570.01 311.26 575.07 310.17 577.89 C 323.78 577.81 337.42 578.17 351.04 578.00 C 355.71 577.88 360.30 576.84 364.98 576.97 C 419.76 577.10 474.54 576.87 529.32 577.08 C 529.20 579.34 528.75 581.59 527.62 583.58 C 523.67 590.76 520.30 598.23 516.59 605.53 C 513.55 612.68 509.38 619.30 506.51 626.52 C 504.20 632.90 500.02 638.71 500.12 645.77 C 498.73 648.39 498.50 651.39 498.49 654.32 C 498.68 657.63 496.12 660.14 495.30 663.19 C 493.66 669.30 492.25 675.48 490.59 681.59 C 489.83 684.19 490.44 686.95 489.79 689.57 C 489.00 691.44 487.59 693.03 487.21 695.07 C 482.83 713.90 477.53 732.49 473.27 751.34 C 470.33 761.33 468.04 771.49 465.59 781.61 C 458.80 807.61 452.54 833.75 445.80 859.76 C 442.99 872.16 439.72 884.45 436.39 896.71 C 418.27 897.39 400.13 896.80 382.00 897.00 C 327.00 896.99 272.00 897.02 217.00 896.98 C 212.60 896.91 208.20 897.20 203.80 897.20 C 202.17 897.38 201.05 895.86 200.55 894.51 C 197.96 886.50 196.54 878.14 193.61 870.24 C 190.86 864.65 190.52 858.31 188.52 852.47 C 185.80 844.29 183.64 835.94 181.20 827.67 C 177.12 816.61 175.47 804.77 170.71 793.95 C 168.21 781.43 163.92 769.39 160.21 757.21 C 158.82 751.83 157.74 746.37 155.87 741.13 C 153.96 735.85 153.22 730.20 150.95 725.05 C 149.54 722.08 149.33 718.75 148.31 715.67 C 144.97 706.26 142.69 696.52 140.09 686.89 C 135.92 673.90 132.41 660.71 128.33 647.70 C 126.85 642.96 126.24 637.82 123.35 633.66 C 120.77 629.70 119.43 625.09 116.86 621.12 C 111.78 613.90 108.82 605.43 103.78 598.18 C 101.63 595.23 99.90 592.01 98.37 588.72 C 96.66 584.89 94.09 581.53 92.61 577.60 C 112.06 578.35 131.53 577.86 151.00 578.00 C 188.75 577.87 226.53 578.27 264.27 577.77 C 269.05 578.05 273.95 578.47 278.60 577.02 C 268.14 575.00 257.87 572.17 247.58 569.42 C 239.13 567.34 231.20 563.62 222.85 561.19 C 217.76 559.67 213.39 556.53 208.55 554.43 C 204.99 552.68 201.18 551.40 197.97 549.03 C 188.95 542.70 178.50 538.32 170.61 530.46 C 160.55 522.21 151.60 512.69 143.52 502.51 C 136.60 492.44 129.71 482.18 125.28 470.72 C 120.12 459.43 117.60 447.13 116.21 434.85 C 115.44 423.93 115.91 412.80 119.12 402.27 C 120.67 395.92 123.73 390.06 125.25 383.70 C 126.37 379.08 128.82 374.95 130.65 370.61 C 133.52 364.73 135.15 358.28 138.84 352.81 C 142.14 348.14 143.39 342.38 146.74 337.75 C 150.84 331.78 153.35 324.72 158.21 319.29 C 161.04 319.40 163.81 320.12 166.57 320.72 C 167.58 306.16 166.68 291.54 167.02 276.96 C 168.33 256.18 171.48 235.56 175.05 215.06 C 175.41 208.43 178.36 202.37 178.94 195.78 C 180.05 192.00 180.50 187.37 183.77 184.79 C 188.53 183.69 193.49 183.54 198.25 182.35 C 207.15 181.54 216.16 181.81 225.02 182.89 C 230.45 183.32 235.98 183.64 241.13 185.55 C 244.74 179.41 247.24 172.72 250.40 166.36 C 251.90 163.40 253.12 160.30 254.10 157.13 C 257.70 147.01 262.29 137.21 264.80 126.73 C 268.37 114.60 271.18 102.24 272.67 89.67 C 272.98 85.46 272.78 81.23 273.36 77.04 M 438.74 138.69 C 433.91 143.90 428.15 148.12 423.24 153.25 C 416.96 159.31 411.20 165.87 405.19 172.18 C 401.23 177.20 397.16 182.13 392.96 186.96 C 391.07 189.59 388.51 192.44 388.99 195.93 C 389.52 199.80 391.59 203.41 391.26 207.40 C 390.41 221.97 392.13 236.70 389.32 251.13 C 387.10 273.83 381.20 295.92 375.07 317.81 C 372.56 325.48 369.52 332.99 367.68 340.87 C 366.99 343.60 365.55 346.05 364.53 348.65 C 362.53 353.67 361.28 358.97 358.77 363.79 C 357.06 367.04 356.53 370.73 355.08 374.08 C 350.50 384.00 346.49 394.16 342.29 404.24 C 338.40 414.22 332.82 423.46 329.19 433.55 C 334.20 428.59 336.96 421.88 341.64 416.62 C 346.64 409.09 352.21 401.95 357.93 394.95 C 367.34 381.87 377.99 369.75 388.88 357.90 C 394.13 351.19 400.60 345.61 406.18 339.20 C 412.60 333.28 418.27 326.58 425.04 321.04 C 429.77 317.10 433.37 311.99 438.26 308.24 C 446.68 301.37 454.31 293.56 462.99 287.01 C 466.73 284.11 470.99 281.55 473.52 277.44 C 476.84 269.30 476.42 260.29 477.68 251.72 C 478.34 242.83 477.93 233.88 477.96 224.97 C 477.12 216.45 476.96 207.74 474.08 199.59 C 472.41 182.01 465.50 165.34 457.02 150.02 C 454.11 143.66 449.86 138.07 445.80 132.42 C 443.24 134.27 440.89 136.39 438.74 138.69 M 287.70 147.07 C 286.82 151.47 285.52 155.78 283.97 159.99 C 281.94 165.49 280.81 171.29 278.62 176.73 C 275.65 183.28 273.37 190.11 270.91 196.86 C 280.77 204.32 291.54 210.82 299.92 220.06 C 313.75 232.68 323.51 249.16 330.54 266.37 C 333.67 260.47 335.14 253.88 337.92 247.82 C 342.92 238.04 347.93 228.26 353.91 219.02 C 350.39 209.07 345.88 199.21 338.57 191.44 C 330.62 180.96 320.69 172.24 310.65 163.84 C 303.04 158.19 296.00 151.69 287.70 147.07 M 193.30 196.08 C 192.04 203.43 190.43 210.72 189.16 218.06 C 188.48 225.76 187.00 233.35 185.95 240.99 C 185.17 245.79 185.85 250.72 184.63 255.46 C 183.08 262.87 182.96 270.45 182.12 277.94 C 181.60 281.27 180.91 284.58 180.96 287.97 C 180.98 297.65 181.07 307.32 180.94 317.00 C 180.96 319.52 180.82 322.08 181.34 324.56 C 182.28 325.98 183.81 326.82 185.40 327.32 C 189.83 328.78 193.85 331.21 198.22 332.82 C 206.07 335.89 213.08 340.57 220.48 344.52 C 219.80 332.29 217.87 319.99 219.66 307.75 C 220.14 297.85 221.08 287.99 222.01 278.12 C 223.96 267.51 225.44 256.82 226.87 246.14 C 229.84 238.90 230.32 231.00 231.81 223.39 C 232.49 220.55 233.63 217.82 233.94 214.89 C 234.37 209.81 236.18 205.02 237.23 200.07 C 232.97 198.34 228.64 196.47 223.99 196.15 C 213.79 195.66 203.40 193.58 193.30 196.08 M 264.46 212.60 C 262.03 219.17 258.99 225.60 257.86 232.57 C 257.24 236.57 254.84 239.99 253.87 243.89 C 249.41 260.22 244.77 276.64 243.55 293.59 C 240.13 310.84 242.64 328.43 245.48 345.56 C 248.09 354.60 250.82 363.86 256.27 371.66 C 262.48 383.52 272.30 393.22 283.27 400.73 C 293.10 406.62 303.00 413.46 314.58 415.17 C 316.68 411.03 318.88 406.94 320.62 402.63 C 323.72 394.55 327.86 386.92 330.87 378.80 C 339.20 361.80 344.36 343.51 350.74 325.75 C 351.55 322.98 351.41 320.01 352.45 317.31 C 356.02 308.97 357.39 299.93 359.11 291.08 C 360.74 283.15 362.06 275.10 362.02 266.97 C 361.93 262.45 363.23 257.97 362.60 253.45 C 361.82 247.15 362.06 240.64 359.81 234.61 C 356.53 242.48 351.52 249.48 348.29 257.38 C 346.08 261.78 345.18 266.66 343.27 271.18 C 339.79 280.29 338.73 290.06 338.22 299.73 C 333.86 301.22 330.17 305.23 325.36 304.95 C 323.57 303.01 323.47 300.19 322.92 297.73 C 322.20 292.37 320.31 287.30 318.90 282.10 C 317.11 274.87 313.27 268.42 310.42 261.60 C 307.40 255.78 303.45 250.51 300.12 244.87 C 291.32 233.44 280.94 223.18 269.24 214.73 C 267.84 213.63 266.13 213.10 264.46 212.60 M 508.75 290.75 C 499.82 297.71 489.57 302.73 480.63 309.68 C 479.42 311.89 479.34 314.52 478.81 316.94 C 477.02 325.51 473.22 333.47 470.82 341.87 C 467.38 351.34 462.44 360.18 458.56 369.46 C 456.29 373.54 453.56 377.35 451.48 381.54 C 449.14 385.98 444.80 389.69 444.58 395.00 C 447.08 393.31 449.57 391.60 452.25 390.21 C 455.97 388.24 459.10 385.33 462.88 383.44 C 477.15 375.91 490.94 367.50 505.44 360.41 C 513.89 355.61 522.86 351.82 531.53 347.46 C 532.73 346.94 532.90 345.46 533.37 344.40 C 535.56 337.47 537.21 330.39 538.38 323.23 C 542.52 310.82 543.92 297.75 547.13 285.11 C 549.01 278.44 549.49 271.50 551.03 264.76 C 536.81 273.22 522.61 281.71 508.75 290.75 M 450.36 332.37 C 441.32 340.35 431.34 347.25 422.87 355.87 C 405.84 371.48 389.06 387.44 373.98 404.97 C 368.24 410.35 363.61 416.70 359.10 423.10 C 348.75 435.09 340.33 448.56 332.00 461.99 C 329.54 466.35 328.07 471.18 325.53 475.50 C 322.52 480.84 320.98 486.82 318.35 492.34 C 316.93 495.21 316.66 498.44 315.96 501.53 C 313.63 510.08 311.69 518.90 311.79 527.82 C 316.56 525.76 321.97 525.03 326.24 521.93 C 330.97 521.51 335.04 518.93 339.42 517.38 C 354.32 511.81 368.80 505.19 382.97 497.98 C 403.58 488.03 423.00 475.83 441.71 462.69 C 448.02 457.32 454.64 452.32 460.92 446.91 C 471.04 437.37 481.32 427.93 490.18 417.18 C 493.25 413.86 495.56 409.94 498.62 406.61 C 501.90 403.08 504.56 399.03 506.87 394.80 C 510.99 387.96 516.08 381.67 519.25 374.28 C 520.64 370.96 522.21 367.71 523.85 364.50 C 516.32 367.84 508.90 371.50 501.90 375.86 C 491.52 381.44 480.96 386.72 470.92 392.93 C 463.93 398.10 455.95 401.72 449.03 407.01 C 440.16 411.87 432.05 417.94 423.83 423.81 C 420.53 425.83 417.70 428.67 414.00 430.00 C 411.30 428.05 406.09 424.66 408.79 420.91 C 415.95 412.23 422.23 402.88 428.42 393.51 C 431.37 387.02 436.05 381.51 438.97 375.00 C 440.99 369.89 444.43 365.52 446.48 360.44 C 451.23 348.44 457.27 336.91 460.90 324.49 C 457.22 326.90 453.77 329.62 450.36 332.37 M 149.87 371.19 C 148.58 376.11 145.66 380.38 144.25 385.26 C 142.69 390.44 140.95 395.59 139.78 400.88 C 142.53 401.88 145.28 402.88 147.99 404.01 C 151.26 405.23 154.42 407.25 158.04 406.89 C 163.36 411.11 169.96 413.03 175.93 416.08 C 179.55 417.73 182.78 420.07 186.20 422.08 C 186.53 420.47 187.48 418.80 186.86 417.15 C 185.36 411.52 182.63 406.30 181.18 400.65 C 179.51 394.03 176.74 387.74 175.10 381.11 C 172.97 377.89 168.95 376.78 165.52 375.48 C 160.32 374.01 155.46 370.85 149.87 371.19 M 192.62 389.09 C 196.45 399.68 201.54 409.75 205.96 420.09 C 211.31 431.01 217.17 441.76 224.35 451.61 C 228.18 458.27 232.41 464.73 237.53 470.49 C 238.55 471.98 240.65 473.46 239.82 475.50 C 236.85 478.06 233.59 480.30 230.24 482.33 C 228.74 483.34 226.42 483.42 225.39 481.71 C 213.97 468.15 201.21 455.83 188.53 443.48 C 183.84 439.47 179.53 434.94 174.10 431.90 C 168.69 429.09 163.98 425.11 158.42 422.58 C 151.64 419.53 144.69 416.82 137.53 414.80 C 136.92 421.08 135.43 427.36 136.31 433.70 C 137.85 443.54 138.98 453.63 143.05 462.83 C 149.17 480.26 162.11 494.49 176.77 505.31 C 189.80 515.83 205.38 522.70 221.24 527.76 C 231.09 530.39 240.94 533.54 251.20 534.11 C 260.65 535.64 270.32 537.15 279.90 535.97 C 279.44 528.85 281.66 521.79 280.38 514.71 C 279.77 509.42 280.25 504.05 279.22 498.80 C 277.19 483.53 271.70 468.93 264.62 455.33 C 258.45 444.87 251.46 434.76 242.72 426.27 C 235.68 418.90 228.18 411.83 219.45 406.47 C 215.71 403.45 211.74 400.75 207.58 398.35 C 202.98 394.66 197.76 391.93 192.62 389.09 M 148.06 612.35 C 148.89 618.65 151.89 624.33 153.77 630.34 C 155.73 635.31 156.28 640.83 159.17 645.42 C 159.52 650.46 162.63 654.66 163.41 659.59 C 164.22 664.40 167.26 668.46 167.91 673.30 C 168.67 674.01 169.46 674.71 170.25 675.41 C 171.14 681.70 172.18 688.10 175.04 693.86 C 178.69 701.71 180.05 710.34 183.34 718.33 C 186.36 726.02 187.82 734.24 191.22 741.79 C 194.30 749.07 195.28 757.06 198.73 764.19 C 202.42 773.73 204.85 783.69 208.64 793.19 C 215.22 813.08 221.66 833.01 228.52 852.80 C 230.38 858.20 231.11 864.49 235.50 868.57 C 237.94 869.20 240.50 869.02 243.00 869.06 C 275.80 868.74 308.63 869.40 341.42 868.73 C 344.03 857.01 346.93 845.34 349.37 833.58 C 349.82 828.77 351.72 824.28 352.61 819.56 C 354.53 808.58 358.02 797.95 360.05 786.99 C 362.53 776.75 364.90 766.48 367.22 756.20 C 369.39 748.73 369.56 740.81 372.49 733.54 C 373.86 724.38 376.84 715.57 378.49 706.45 C 381.40 696.89 382.33 686.88 385.28 677.34 C 387.72 667.08 390.33 656.84 391.87 646.40 C 394.09 642.03 393.64 636.96 395.34 632.42 C 397.55 625.98 398.58 619.24 399.89 612.58 C 386.97 611.35 373.96 612.29 361.00 612.00 C 305.67 612.00 250.33 612.00 195.00 612.00 C 179.36 612.22 163.69 611.55 148.06 612.35 Z" />
</g>
<g id="#eeeeeeff">
</g>
</svg>
