<?xml version="1.0" encoding="UTF-8"?>
<svg width="374px" height="600px" viewBox="0 0 374 600" version="1.1" xmlns="http://www.w3.org/2000/svg" xmlns:xlink="http://www.w3.org/1999/xlink">
    <title>pot</title>
    <g id="Page-1" stroke="none" stroke-width="1" fill="none" fill-rule="evenodd" opacity="0.8">
        <g id="Artboard-1" transform="translate(-58.000000, -113.000000)" fill="#A1CC3A">
            <g id="##A1CC3A" transform="translate(58.446458, 113.029233)">
                <path d="M132.290607,0 C138.350724,0.314250914 143.188571,4.36297199 148.385049,7.00121803 C154.584227,9.82947625 160.439413,13.3447016 166.1409,17.0499391 C173.18908,21.2302071 179.915225,26.0682095 185.733816,31.8489647 C194.802035,39.4786845 202.128337,49.0231425 208.064031,59.2326431 C210.794012,63.8733252 212.309041,69.0401949 214.050959,74.090134 C219.137652,67.6881851 224.926967,61.8928136 230.58454,55.9951279 C240.084579,45.4786845 251.01182,36.3873325 261.324266,26.6894032 C262.568493,25.7758831 263.710254,27.6613886 264.52998,28.4360536 C267.98454,32.8063337 271.878239,36.8696711 274.666771,41.7222899 C278.114012,46.8087698 280.397534,52.5383678 283.259256,57.9464068 C285.835538,63.9756395 287.584775,70.3337393 289.509667,76.589525 C291.310137,86.0316687 293.000822,95.5688185 293.074012,105.208283 C292.905675,111.25944 293.3009,117.325213 292.86908,123.369062 C292.22501,127.527406 292.203053,131.736906 292.320157,135.924482 C296.345597,133.717418 299.500078,130.25335 303.532838,128.060901 C308.143796,125.503045 311.876477,121.637028 316.553307,119.181486 C323.630763,115.454324 329.727476,110.097442 336.95863,106.640682 C339.637378,105.244823 341.950176,103.198538 344.767984,102.051157 C349.108141,100.180268 352.972564,97.3885505 357.334677,95.5688185 C362.077378,93.4348356 366.73225,91.1181486 371.357847,88.7503045 C374.402544,90.8696711 372.353229,94.6260658 371.657926,97.3885505 C367.895969,119.36419 359.501096,140.148599 352.92865,161.371498 C351.333112,165.968331 349.532642,170.506699 348.368924,175.242387 C347.153973,179.729598 345.243718,184.01218 344.343483,188.601705 C342.169746,198.47503 338.371194,207.866017 335.084971,217.395859 C333.306458,221.429963 331.769472,225.588307 329.639648,229.461632 C327.121918,233.612667 325.489785,238.246041 322.723209,242.258222 C317.892681,249.442144 313.5818,256.976857 308.436556,263.948843 C306.240861,266.587089 303.737769,268.962241 301.754325,271.768575 C288.587476,287.349574 273.37863,301.11084 257.145127,313.417783 C252.512211,316.275274 247.952485,319.249695 243.6782,322.618758 C237.976712,325.578563 232.758278,329.342266 227.137299,332.455542 C221.992055,335.795371 216.246654,338.046285 210.976986,341.16687 C202.889511,345.303289 194.260431,348.285018 186.158317,352.362972 C178.004971,354.182704 170.561566,358.341048 162.349667,359.963459 C159.487945,360.270402 160.02955,363.968331 159.231781,366.029233 C169.192916,365.970767 179.176008,366.233861 189.144462,366.109622 C192.562427,366.021924 195.92184,365.261876 199.347123,365.356882 C239.440509,365.451888 279.533894,365.2838 319.62728,365.437272 C319.539452,367.088916 319.210098,368.733252 318.383053,370.187576 C315.492055,375.434836 313.025558,380.894032 310.310215,386.228989 C308.085245,391.454324 305.033229,396.292326 302.932681,401.568819 C301.241996,406.231425 298.182661,410.477467 298.255851,415.637028 C297.238513,417.551766 297.070176,419.744214 297.062857,421.885505 C297.201918,424.304507 295.328258,426.138855 294.728102,428.367844 C293.527789,432.83313 292.495812,437.349574 291.280861,441.81486 C290.724618,443.714982 291.171076,445.732034 290.695342,447.646772 C290.117143,449.013398 289.085166,450.175396 288.807045,451.666261 C285.601331,465.427527 281.72227,479.013398 278.604384,492.789281 C276.452603,500.090134 274.776556,507.515225 272.983405,514.911084 C268.013816,533.912302 263.432133,553.015834 258.499139,572.024361 C256.442505,581.08648 254.049198,590.06821 251.611977,599.028015 C238.34998,599.52497 225.073346,599.093788 211.804031,599.239951 C171.549628,599.232643 131.295225,599.254568 91.0408219,599.225335 C87.8204697,599.174178 84.6001174,599.386114 81.3797652,599.386114 C80.186771,599.517661 79.367045,598.406821 79.0010959,597.420219 C77.1054795,591.566382 76.066184,585.45676 73.9217221,579.683313 C71.909002,575.598051 71.6601566,570.964677 70.1963601,566.696711 C68.2055969,560.718636 66.6246967,554.616322 64.838865,548.572473 C61.8527202,540.489647 60.6450881,531.836784 57.1612524,523.929354 C55.3315068,514.779537 52.1916634,505.980512 49.4763209,497.079172 C48.4589824,493.147381 47.6685323,489.157125 46.2998826,485.327649 C44.9019569,481.46894 44.3603523,477.339829 42.6989432,473.576127 C41.6669667,471.405603 41.5132681,468.971985 40.7667319,466.721072 C38.3221918,459.844093 36.6534638,452.725944 34.7505284,445.688185 C31.6985127,436.194884 29.1295499,426.55542 26.1434051,417.047503 C25.0601957,413.583435 24.6137378,409.82704 22.4985519,406.786845 C20.6102544,403.892814 19.6295108,400.523752 17.7485323,397.622412 C14.0304892,392.34592 11.8640705,386.155907 8.17530333,380.857491 C6.60172211,378.701583 5.33553816,376.348356 4.21573386,373.943971 C2.96418787,371.144945 1.08320939,368.689403 0,365.817296 C14.2354207,366.365408 28.4854795,366.007308 42.7355382,366.109622 C70.3646967,366.014616 98.0158121,366.306943 125.637652,365.941535 C129.136125,366.146163 132.722427,366.453106 136.125753,365.393423 C128.470098,363.917174 120.953503,361.848965 113.42227,359.83922 C107.23773,358.319123 101.433777,355.600487 95.3224266,353.824604 C91.5970646,352.713764 88.3986693,350.419001 84.8562818,348.884287 C82.2507241,347.605359 79.4621918,346.669915 77.1127984,344.937881 C70.5110763,340.311815 62.8627397,337.11084 57.0880626,331.366626 C49.7251663,325.337393 43.1746771,318.380024 37.2609393,310.940317 C32.1962035,303.580999 27.1534247,296.082826 23.9111155,287.707674 C20.1345205,279.45676 18.290137,270.467722 17.2727984,261.493301 C16.7092368,253.512789 17.053229,245.378806 19.4026223,237.683313 C20.5370646,233.042631 22.7766732,228.760049 23.8891585,224.112058 C24.7088845,220.735688 26.5020352,217.717418 27.841409,214.545676 C29.9419569,210.248477 31.1349511,205.534714 33.8356556,201.53715 C36.2509198,198.124239 37.1657926,193.914738 39.6176517,190.53106 C42.6184344,186.168088 44.455499,181.008526 48.0125245,177.040195 C50.0837965,177.120585 52.1111546,177.646772 54.1311937,178.085262 C54.870411,167.44458 54.2117025,156.760049 54.4605479,146.10475 C55.4193346,130.918392 57.7248141,115.848965 60.3376908,100.867235 C60.6011742,96.0219245 62.760274,91.593179 63.184775,86.7771011 C63.997182,84.0146163 64.3265362,80.6309379 66.7198434,78.7454324 C70.2036791,77.9415347 73.8338943,77.8319123 77.3177299,76.9622412 C83.8316243,76.3702801 90.4260274,76.5676005 96.9106458,77.3568819 C100.884853,77.6711328 104.93225,77.9049939 108.701526,79.3008526 C111.343679,74.8136419 113.173425,69.9244823 115.486223,65.2764921 C116.58407,63.1132765 117.476986,60.8477467 118.194247,58.5310597 C120.82908,51.135201 124.188493,43.9732034 126.025558,36.3142509 C128.638434,27.4494519 130.695068,18.4165652 131.785597,9.23020706 C132.012485,6.15347138 131.866106,3.06211937 132.290607,0 L132.290607,0 Z M253.331937,45.0548112 C249.796869,48.862363 245.581135,51.9464068 241.987515,55.6954933 C237.391194,60.1242387 233.17546,64.9183922 228.776751,69.5298417 C225.878434,73.1985384 222.899609,76.8014616 219.825636,80.3313033 C218.442348,82.2533496 216.568689,84.3361754 216.92,86.8867235 C217.307906,89.7149817 218.822935,92.3532278 218.581409,95.2691839 C217.959295,105.917174 219.21816,116.682095 217.161526,127.227771 C215.536712,143.817296 211.218513,159.961023 206.731977,175.958587 C204.894912,181.563946 202.669941,187.052375 201.323249,192.811206 C200.818239,194.806334 199.764305,196.596833 199.017769,198.496955 C197.553973,202.165652 196.6391,206.038977 194.802035,209.56151 C193.550489,211.936663 193.162583,214.633374 192.101331,217.081608 C188.749237,224.331303 185.814325,231.756395 182.740352,239.123021 C179.893268,246.416565 175.809276,253.169306 173.152485,260.54324 C176.819295,256.918392 178.839335,252.014616 182.264618,248.170524 C185.92411,242.667479 190.000783,237.449452 194.187241,232.333739 C201.074403,222.774665 208.869119,213.917174 216.839491,205.257004 C220.681957,200.353228 225.417339,196.275274 229.501331,191.590743 C234.200117,187.264312 238.34998,182.367844 243.304932,178.319123 C246.76681,175.439708 249.401644,171.705238 252.980626,168.964677 C259.143209,163.943971 264.727593,158.236297 271.08047,153.449452 C273.817769,151.330085 276.935656,149.459196 278.787358,146.455542 C281.21726,140.506699 280.909863,133.922046 281.832055,127.658952 C282.315108,121.161998 282.015029,114.621194 282.036986,108.109622 C281.422192,101.883069 281.305088,95.5176614 279.197221,89.5615104 C277.974951,76.7137637 272.917534,64.5310597 266.711037,53.3349574 C264.581213,48.6869671 261.470646,44.6017052 258.499139,40.4725944 C256.625479,41.8246041 254.905519,43.3739342 253.331937,45.0548112 L253.331937,45.0548112 Z M142.786027,51.1790499 C142.141957,54.3946407 141.190489,57.544458 140.056047,60.6211937 C138.570294,64.6406821 137.743249,68.8794153 136.140391,72.8550548 C133.966654,77.6419001 132.297926,82.6333739 130.497456,87.5663825 C137.713973,93.0182704 145.596517,97.7685749 151.729824,104.521315 C161.851977,113.744214 168.995303,125.788063 174.140548,138.365408 C176.431389,134.053593 177.50728,129.237515 179.541957,124.80877 C183.201448,117.661389 186.868258,110.514007 191.24501,103.761267 C188.668728,96.4896468 185.367867,89.2838002 180.017691,83.6053593 C174.1991,75.9464068 166.93135,69.5736906 159.583092,63.4348356 C154.013346,59.3057247 148.860783,54.5554202 142.786027,51.1790499 L142.786027,51.1790499 Z M73.6948337,86.9963459 C72.7726419,92.3678441 71.5942857,97.6954933 70.664775,103.059683 C70.1670841,108.686967 69.0838748,114.233861 68.3153816,119.817296 C67.744501,123.325213 68.2421918,126.928136 67.3492759,130.392205 C66.2148337,135.807552 66.1270059,141.347138 65.5122114,146.82095 C65.1316243,149.254568 64.6266145,151.673569 64.6632094,154.151035 C64.6778474,161.225335 64.7437182,168.292326 64.6485714,175.366626 C64.6632094,177.208283 64.5607436,179.079172 64.9413307,180.891596 C65.6293151,181.929354 66.7491194,182.54324 67.9128376,182.908648 C71.1551468,183.975639 74.0973777,185.751523 77.295773,186.928136 C83.0411742,189.171742 88.1717808,192.591961 93.5878278,195.478685 C93.090137,186.540804 91.6775734,177.551766 92.9876712,168.606577 C93.3389824,161.371498 94.0269667,154.165652 94.7076321,146.952497 C96.1348337,139.198538 97.2180431,131.386114 98.2646575,123.580999 C100.438395,118.28989 100.789706,112.516443 101.880235,106.954933 C102.377926,104.879415 103.21229,102.884287 103.439178,100.742996 C103.753894,97.0304507 105.07863,93.5298417 105.847123,89.9123021 C102.729237,88.6479903 99.5601174,87.2813642 96.1567906,87.047503 C88.6914286,86.6894032 81.0870059,85.1693057 73.6948337,86.9963459 L73.6948337,86.9963459 Z M125.776712,99.0694275 C123.9982,103.870889 121.773229,108.570037 120.946184,113.663825 C120.492407,116.587089 118.735851,119.08648 118.02591,121.936663 C114.761644,133.870889 111.365636,145.870889 110.47272,158.258222 C107.969628,170.864799 109.806693,183.719854 111.885284,196.238733 C113.795538,202.845311 115.79362,209.612667 119.782466,215.313033 C124.327554,223.980512 131.514795,231.069428 139.543718,236.557856 C146.738278,240.862363 153.98407,245.861145 162.459452,247.11084 C163.996438,244.085262 165.606614,241.096224 166.880117,237.946407 C169.149002,232.041413 172.179061,226.465286 174.382074,220.53106 C180.478787,208.107186 184.255382,194.74056 188.924892,181.761267 C189.51773,179.736906 189.415264,177.566382 190.176438,175.593179 C192.789315,169.498173 193.792016,162.891596 195.050881,156.423873 C196.243875,150.628502 197.20998,144.745432 197.180705,138.803898 C197.114834,135.500609 198.066301,132.226553 197.605205,128.923264 C197.034325,124.319123 197.20998,119.56151 195.563209,115.154689 C193.162583,120.906212 189.495773,126.021924 187.131742,131.795371 C185.514247,135.010962 184.855538,138.577345 183.457613,141.880633 C180.910607,148.538368 180.134795,155.678441 179.761526,162.745432 C176.57045,163.834348 173.869746,166.764921 170.349315,166.560292 C169.039217,165.142509 168.966027,163.081608 168.563483,161.2838 C168.036517,157.366626 166.653229,153.661389 165.621252,149.861145 C164.311155,144.577345 161.500665,139.863581 159.414755,134.879415 C157.204423,130.626066 154.313425,126.774665 151.876204,122.652862 C145.435499,114.299635 137.838395,106.801462 129.275186,100.626066 C128.250528,99.8221681 126.998982,99.4348356 125.776712,99.0694275 L125.776712,99.0694275 Z M304.572133,156.182704 C298.036282,161.269184 290.534325,164.937881 283.991155,170.017052 C283.105558,171.632156 283.047006,173.554202 282.6591,175.322777 C281.349002,181.585871 278.567789,187.403167 276.811233,193.542022 C274.293503,200.46285 270.677926,206.923264 267.83816,213.705238 C266.176751,216.686967 264.178669,219.471376 262.656321,222.533496 C260.943679,225.778319 257.767241,228.489647 257.606223,232.37028 C259.435969,231.135201 261.258395,229.885505 263.219883,228.869671 C265.942544,227.429963 268.233386,225.303289 270.999961,223.922046 C281.444149,218.419001 291.537025,212.272838 302.14955,207.091352 C308.33409,203.583435 314.899217,200.813642 321.244775,197.627284 C322.123053,197.247259 322.247476,196.165652 322.591468,195.390987 C324.194325,190.326431 325.401957,185.152253 326.258278,179.91961 C329.288337,170.850183 330.312994,161.298417 332.662387,152.060901 C334.038356,147.186358 334.389667,142.114495 335.516791,137.188794 C325.109198,143.371498 314.716243,149.576127 304.572133,156.182704 L304.572133,156.182704 Z M261.836595,186.599269 C255.220235,192.431181 247.91589,197.473812 241.716712,203.773447 C229.252485,215.181486 216.971233,226.845311 205.934207,239.656516 C201.733112,243.588307 198.344423,248.228989 195.043562,252.906212 C187.468415,261.668697 181.305832,271.512789 175.209119,281.327649 C173.40865,284.514007 172.332759,288.043849 170.473738,291.200974 C168.270724,295.103532 167.143601,299.473812 165.218708,303.507917 C164.179413,305.605359 163.9818,307.965895 163.469472,310.224117 C161.764149,316.472594 160.344266,322.918392 160.417456,329.437272 C163.908611,327.93179 167.86818,327.398295 170.993386,325.132765 C174.455264,324.825822 177.43409,322.940317 180.639804,321.807552 C191.545088,317.736906 202.142975,312.898904 212.513973,307.62972 C227.598395,300.3581 241.811859,291.442144 255.505675,281.83922 C260.123953,277.914738 264.969119,274.260658 269.56544,270.306943 C276.97225,263.334957 284.496164,256.436054 290.980783,248.579781 C293.22771,246.153471 294.918395,243.288672 297.158004,240.855055 C299.55863,238.275274 301.505479,235.315469 303.196164,232.224117 C306.211585,227.225335 309.936947,222.628502 312.257065,217.227771 C313.274403,214.801462 314.423483,212.426309 315.623796,210.08039 C310.112603,212.521315 304.681918,215.196102 299.55863,218.38246 C291.961526,222.460414 284.232681,226.319123 276.884423,230.857491 C271.768454,234.63581 265.927906,237.281364 260.86317,241.147381 C254.371233,244.699147 248.435538,249.135201 242.419335,253.425091 C240.00407,254.90134 237.932798,256.976857 235.224775,257.948843 C233.24865,256.523752 229.43546,254.046285 231.411585,251.305725 C236.651977,244.962241 241.248297,238.129111 245.778748,231.281364 C247.937847,226.538368 251.363131,222.511571 253.500274,217.753959 C254.978708,214.019488 257.496438,210.825822 258.99683,207.113276 C262.473346,198.343484 266.894012,189.917174 269.550802,180.840438 C266.857417,182.601705 264.332368,184.589525 261.836595,186.599269 L261.836595,186.599269 Z M41.9084932,214.969549 C40.9643444,218.565164 38.8272016,221.685749 37.795225,225.252132 C36.6534638,229.037759 35.3799609,232.801462 34.5236399,236.667479 C36.5363601,237.398295 38.5490802,238.129111 40.5325245,238.954933 C42.9258317,239.846529 45.2386301,241.322777 47.8881018,241.059683 C51.7818004,244.143727 56.6123288,245.546894 60.9817613,247.775883 C63.6312329,248.98173 65.9952642,250.691839 68.4983562,252.16078 C68.7398826,250.984166 69.4351859,249.763703 68.981409,248.557856 C67.8835616,244.443362 65.8854795,240.628502 64.824227,236.499391 C63.6019569,231.661389 61.5745988,227.064555 60.3742857,222.219245 C58.8153425,219.866017 55.8731115,219.054811 53.3627006,218.10475 C49.5568297,217.030451 45.9998043,214.721072 41.9084932,214.969549 L41.9084932,214.969549 Z M73.1971429,228.051157 C76.0003131,235.790499 79.7256751,243.149817 82.9606654,250.706456 C86.8763209,258.686967 91.1652446,266.54324 96.420274,273.741778 C99.2234442,278.609013 102.319374,283.330085 106.066693,287.539586 C106.813229,288.628502 108.350215,289.71011 107.74274,291.200974 C105.569002,293.071864 103.183014,294.708892 100.731155,296.192448 C99.6333072,296.930572 97.9353033,296.989038 97.1814481,295.739342 C88.8231703,285.829476 79.4841487,276.825822 70.2036791,267.800244 C66.7710763,264.869671 63.6165949,261.559074 59.6423875,259.337393 C55.682818,257.2838 52.2355773,254.375152 48.1662231,252.526188 C43.203953,250.297199 38.1172603,248.316687 32.8768689,246.840438 C32.430411,251.429963 31.3398826,256.019488 31.983953,260.652862 C33.1110763,267.844093 33.9381213,275.218027 36.9169472,281.941535 C41.3961644,294.679659 50.8669276,305.079172 61.5965558,312.986602 C71.1331898,320.674787 82.5361644,325.695493 94.1440705,329.393423 C101.353268,331.315469 108.562466,333.61754 116.071742,334.034105 C122.98818,335.152253 130.065636,336.255786 137.077221,335.393423 C136.740548,330.190012 138.365362,325.030451 137.428532,319.856273 C136.982074,315.990256 137.333386,312.065773 136.57953,308.228989 C135.093777,297.069428 131.075656,286.399513 125.893816,276.460414 C121.378004,268.816078 116.262035,261.427527 109.865245,255.222899 C104.712681,249.836784 99.2234442,244.669915 92.8339726,240.752741 C90.0966732,238.545676 87.1910372,236.572473 84.1463405,234.818514 C80.7796086,232.121803 76.9590998,230.126675 73.1971429,228.051157 L73.1971429,228.051157 Z M40.5837573,391.213155 C41.1912329,395.817296 43.3869276,399.968331 44.7628963,404.360536 C46.1974168,407.992692 46.5999609,412.026797 48.7151468,415.381242 C48.9713112,419.064555 51.2475147,422.133983 51.8183953,425.736906 C52.4112329,429.252132 54.6362035,432.219245 55.1119374,435.756395 C55.66818,436.275274 56.2463796,436.786845 56.8245793,437.298417 C57.4759687,441.89525 58.2371429,446.572473 60.3303718,450.781973 C63.0018004,456.518879 63.997182,462.825822 66.4051272,468.665043 C68.6154599,474.285018 69.6840313,480.292326 72.1724853,485.809988 C74.4267319,491.130329 75.1439922,496.969549 77.6690411,502.180268 C80.3697456,509.152253 82.1482583,516.431181 84.9221526,523.373934 C89.7380431,537.909866 94.4514677,552.47503 99.4722896,566.937881 C100.83362,570.884287 101.367906,575.481121 104.580939,578.46285 C106.366771,578.923264 108.240431,578.791717 110.070176,578.82095 C134.076438,578.587089 158.104658,579.069428 182.103601,578.579781 C184.013855,570.014616 186.13636,561.485993 187.922192,552.891596 C188.251546,549.37637 189.642153,546.095006 190.293542,542.645554 C191.698787,534.621194 194.253112,526.852619 195.738865,518.842875 C197.553973,511.359318 199.288571,503.853837 200.986575,496.341048 C202.574795,490.881851 202.699217,485.093788 204.843679,479.780755 C205.84638,473.08648 208.027436,466.64799 209.235068,459.982948 C211.364892,452.996346 212.045558,445.680877 214.204658,438.708892 C215.990489,431.210719 217.900744,423.727162 219.027867,416.097442 C220.652681,412.903776 220.323327,409.198538 221.567554,405.880633 C223.185049,401.174178 223.938904,396.248477 224.897691,391.381242 C215.441566,390.482339 205.919569,391.169306 196.434168,390.957369 L74.9390607,390.957369 C63.4921722,391.118149 52.0233268,390.628502 40.5837573,391.213155 L40.5837573,391.213155 Z" id="Shape"></path>
            </g>
        </g>
    </g>
</svg>